<svg width="131" height="29" viewBox="0 0 131 29" fill="none" xmlns="http://www.w3.org/2000/svg">
<path d="M29.024 5.464C29.024 9.304 24.96 14.68 17.28 18.712C19.68 19.928 20.672 21.528 20.672 23.096C20.672 25.88 17.536 28.536 13.728 28.536C11.776 28.536 7.712 27.576 7.712 25.784C7.712 24.984 8.48 23.736 8.992 23.736C9.184 23.736 9.408 23.832 9.696 24.12C10.528 24.92 11.712 25.144 12.608 25.144C14.4 25.144 15.712 24.536 15.712 23.352C15.712 20.856 12.352 21.016 11.072 20.696C10.528 20.568 10.368 20.184 10.368 19.8C10.368 18.68 11.488 17.688 12.384 17.432C19.328 15.352 24.096 9.912 24.096 7.032C24.096 5.88 23.36 5.144 21.728 5.144C15.936 5.144 4.576 22.2 4.32 26.168C4.224 27.608 3.744 27.736 2.688 27.736C1.632 27.736 0 27.064 0 26.104C0 25.848 0.096 25.592 0.256 25.336C2.656 21.08 4.224 8.344 4.224 7.384C4.224 7.384 4.288 6.84 4.576 6.584C4.768 6.456 6.88 5.336 8.32 5.208C8.8 5.208 8.928 5.56 8.928 6.104C8.928 7.608 7.84 11.832 7.808 12.696C13.056 4.664 19.904 0.375999 24.384 0.375999C27.168 0.375999 29.024 2.04 29.024 5.464ZM32.199 17.496C31.4523 19.736 30.9723 21.8587 30.759 23.864L30.727 24.248C30.727 24.7387 30.8763 24.984 31.175 24.984C31.8577 24.9413 32.743 24.3227 33.831 23.128C34.1083 22.9147 34.3323 22.808 34.503 22.808C34.695 22.808 34.919 22.936 35.175 23.192C35.431 23.4267 35.559 23.6507 35.559 23.864C35.559 24.3547 34.8977 25.0267 33.575 25.88C32.2737 26.712 31.2283 27.128 30.439 27.128C29.1803 27.128 28.5403 26.4987 28.519 25.24L28.615 24.248C28.3803 24.9093 27.9323 25.56 27.271 26.2C26.6097 26.84 25.8203 27.16 24.903 27.16C23.9857 27.16 23.2923 26.8507 22.823 26.232C22.375 25.6133 22.151 24.8133 22.151 23.832C22.151 22.552 22.3643 21.2187 22.791 19.832C23.239 18.4453 23.591 17.5387 23.847 17.112C24.103 16.664 24.4337 16.44 24.839 16.44C25.2657 16.44 25.5857 16.5253 25.799 16.696C26.0123 16.8453 26.119 16.9947 26.119 17.144C26.119 17.272 25.863 18.0507 25.351 19.48C24.839 20.9093 24.5403 22.168 24.455 23.256V23.48C24.455 24.5253 24.8177 25.048 25.543 25.048C26.119 25.048 26.7057 24.7173 27.303 24.056C27.9217 23.3733 28.4017 22.4453 28.743 21.272L29.607 18.072C29.8203 17.368 30.023 16.92 30.215 16.728C30.4283 16.536 30.695 16.44 31.015 16.44C31.3563 16.44 31.6443 16.536 31.879 16.728C32.1137 16.92 32.231 17.1333 32.231 17.368L32.199 17.496ZM34.2368 21.816C34.2368 21.816 34.2368 21.6987 34.2368 21.464C33.9594 21.656 33.7141 21.752 33.5008 21.752C33.3088 21.752 33.1381 21.6667 32.9888 21.496C32.8608 21.304 32.7968 21.08 32.7968 20.824C32.7968 20.5467 32.9248 20.344 33.1808 20.216C33.4368 20.0667 33.8421 19.864 34.3968 19.608C34.7594 16.7707 35.5061 14.072 36.6368 11.512C37.2128 10.2107 37.9274 9.144 38.7808 8.312C39.6341 7.45867 40.4661 7.032 41.2768 7.032C42.0874 7.032 42.6634 7.23467 43.0048 7.64C43.3674 8.04533 43.5488 8.536 43.5488 9.112V9.336C43.4208 10.9147 42.8234 12.4827 41.7568 14.04C40.7114 15.5973 39.4741 16.9627 38.0448 18.136C39.8154 17.5387 40.9461 17.24 41.4368 17.24C41.6074 17.24 41.7674 17.336 41.9168 17.528C42.0874 17.6987 42.1728 17.9333 42.1728 18.232C42.1728 18.5307 41.9914 18.712 41.6288 18.776C40.5408 18.9467 38.8768 19.4907 36.6368 20.408C36.5941 21.0907 36.5728 21.624 36.5728 22.008C36.5728 24.0347 37.0101 25.048 37.8848 25.048C38.9088 25.048 40.0928 24.3013 41.4368 22.808C41.5861 22.6587 41.7674 22.584 41.9808 22.584C42.2154 22.584 42.4288 22.68 42.6208 22.872C42.8341 23.0427 42.9408 23.2667 42.9408 23.544C42.9408 23.8 42.8128 24.0667 42.5568 24.344C40.9141 26.1787 39.2608 27.096 37.5968 27.096C36.3594 27.096 35.4848 26.6373 34.9728 25.72C34.4821 24.7813 34.2368 23.48 34.2368 21.816ZM41.0848 9.688C40.4874 9.688 39.8901 10.136 39.2928 11.032C38.1834 12.6747 37.4261 14.7653 37.0208 17.304C37.0634 17.2613 37.3194 16.9733 37.7888 16.44C38.2794 15.9067 38.5781 15.576 38.6848 15.448C38.8128 15.32 39.0688 15.0213 39.4528 14.552C39.8581 14.0613 40.1248 13.688 40.2528 13.432C40.3808 13.176 40.5514 12.8347 40.7648 12.408C40.9994 11.9813 41.1488 11.576 41.2128 11.192C41.2981 10.808 41.3408 10.4667 41.3408 10.168C41.3408 9.86933 41.2554 9.70933 41.0848 9.688ZM42.5493 21.816C42.5493 21.816 42.5493 21.6987 42.5493 21.464C42.2719 21.656 42.0266 21.752 41.8133 21.752C41.6213 21.752 41.4506 21.6667 41.3013 21.496C41.1733 21.304 41.1093 21.08 41.1093 20.824C41.1093 20.5467 41.2373 20.344 41.4933 20.216C41.7493 20.0667 42.1546 19.864 42.7093 19.608C43.0719 16.7707 43.8186 14.072 44.9493 11.512C45.5253 10.2107 46.2399 9.144 47.0933 8.312C47.9466 7.45867 48.7786 7.032 49.5893 7.032C50.3999 7.032 50.9759 7.23467 51.3173 7.64C51.6799 8.04533 51.8613 8.536 51.8613 9.112V9.336C51.7333 10.9147 51.1359 12.4827 50.0693 14.04C49.0239 15.5973 47.7866 16.9627 46.3573 18.136C48.1279 17.5387 49.2586 17.24 49.7493 17.24C49.9199 17.24 50.0799 17.336 50.2293 17.528C50.3999 17.6987 50.4853 17.9333 50.4853 18.232C50.4853 18.5307 50.3039 18.712 49.9413 18.776C48.8533 18.9467 47.1893 19.4907 44.9493 20.408C44.9066 21.0907 44.8853 21.624 44.8853 22.008C44.8853 24.0347 45.3226 25.048 46.1973 25.048C47.2213 25.048 48.4053 24.3013 49.7493 22.808C49.8986 22.6587 50.0799 22.584 50.2933 22.584C50.5279 22.584 50.7413 22.68 50.9333 22.872C51.1466 23.0427 51.2533 23.2667 51.2533 23.544C51.2533 23.8 51.1253 24.0667 50.8693 24.344C49.2266 26.1787 47.5733 27.096 45.9093 27.096C44.6719 27.096 43.7973 26.6373 43.2853 25.72C42.7946 24.7813 42.5493 23.48 42.5493 21.816ZM49.3973 9.688C48.7999 9.688 48.2026 10.136 47.6053 11.032C46.4959 12.6747 45.7386 14.7653 45.3333 17.304C45.3759 17.2613 45.6319 16.9733 46.1013 16.44C46.5919 15.9067 46.8906 15.576 46.9973 15.448C47.1253 15.32 47.3813 15.0213 47.7653 14.552C48.1706 14.0613 48.4373 13.688 48.5653 13.432C48.6933 13.176 48.8639 12.8347 49.0773 12.408C49.3119 11.9813 49.4613 11.576 49.5253 11.192C49.6106 10.808 49.6533 10.4667 49.6533 10.168C49.6533 9.86933 49.5679 9.70933 49.3973 9.688ZM49.9978 22.872C49.9978 21.2933 50.5098 19.832 51.5338 18.488C52.5791 17.1227 53.8378 16.44 55.3098 16.44C56.1844 16.44 56.9098 16.6853 57.4858 17.176C58.0618 17.6667 58.3498 18.328 58.3498 19.16C58.3498 20.3333 57.8698 21.2827 56.9098 22.008C55.9498 22.7333 54.4991 23.2987 52.5578 23.704C52.8564 24.6213 53.6244 25.08 54.8618 25.08C56.5684 25.08 58.1791 24.3547 59.6938 22.904C59.7791 22.8187 59.9071 22.776 60.0778 22.776C60.2698 22.776 60.4404 22.8507 60.5898 23C60.7604 23.1493 60.8458 23.3307 60.8458 23.544C60.8458 23.7573 60.7711 23.9707 60.6218 24.184C60.0884 24.9307 59.2458 25.624 58.0938 26.264C56.9418 26.8827 55.7364 27.192 54.4778 27.192C53.2404 27.192 52.1844 26.8293 51.3098 26.104C50.4351 25.3573 49.9978 24.28 49.9978 22.872ZM55.3418 18.52C54.6591 18.52 53.9978 18.9253 53.3578 19.736C52.7178 20.5253 52.3978 21.3787 52.3978 22.296C55.0644 21.3787 56.3978 20.4187 56.3978 19.416C56.3978 18.8187 56.0458 18.52 55.3418 18.52ZM61.8085 22.968C62.1925 21.752 62.9072 20.3653 63.9525 18.808C65.0192 17.2507 65.8832 16.472 66.5445 16.472C67.4832 16.472 67.9525 16.8347 67.9525 17.56C67.9525 18.0293 67.8352 18.5733 67.6005 19.192C67.3872 19.7893 67.2805 20.152 67.2805 20.28C67.2805 20.6 67.5045 20.76 67.9525 20.76C68.4218 20.76 69.1792 20.4507 70.2245 19.832C70.2672 19.8107 70.3525 19.8 70.4805 19.8C70.6085 19.8 70.7685 19.9173 70.9605 20.152C71.1738 20.3867 71.2805 20.6 71.2805 20.792C71.2805 20.9627 71.2378 21.0907 71.1525 21.176C69.8725 22.328 68.6245 22.904 67.4085 22.904C65.9578 22.904 65.2325 22.2853 65.2325 21.048C65.2325 21.0053 65.4032 20.312 65.7445 18.968C65.7232 18.968 65.5525 19.224 65.2325 19.736C64.2298 21.4 63.2485 23.544 62.2885 26.168C62.0112 26.7227 61.5525 27 60.9125 27C60.0378 27 59.6005 26.296 59.6005 24.888V24.632C59.6005 22.328 59.9312 20.0773 60.5925 17.88C60.9125 16.92 61.4245 16.44 62.1285 16.44C62.4058 16.44 62.6298 16.5253 62.8005 16.696C62.9712 16.8667 63.0565 17.08 63.0565 17.336L61.8085 22.968ZM96.9567 2.072C96.9567 4.312 93.0207 5.752 88.2207 6.968C86.9407 10.36 85.8847 13.88 84.6687 17.464C86.1407 17.368 87.4207 17.304 87.9007 17.304C88.4127 17.304 88.8607 17.368 88.8607 17.848C88.8607 18.904 87.9967 20.728 87.0367 20.728C86.2687 20.728 85.6607 20.44 84.4127 20.44H83.6447C82.7807 22.936 81.8207 25.464 80.7007 27.992C80.2847 28.632 79.7087 28.952 79.3247 28.952C77.8847 28.952 75.3887 28.728 75.3887 27.544C75.3887 27.288 75.5807 27.096 75.7407 26.936C76.7967 26.136 78.1087 23.608 79.3567 20.664C78.6527 20.728 77.9807 20.792 77.5007 20.888C77.1807 20.952 76.7647 21.144 76.4447 21.144C76.0927 21.144 75.9647 20.824 75.9647 20.408C76.0287 19.256 76.5407 18.168 77.8847 17.976C78.1407 17.944 79.1967 17.848 80.5407 17.752C82.4287 12.856 83.9647 7.928 83.9647 7.928C77.3087 9.4 70.6207 10.584 70.6207 12.664C70.6207 13.656 72.7647 13.816 73.5327 13.816C74.7487 13.816 75.5487 13.592 76.5727 13.496C77.0207 13.496 77.1487 13.656 77.1487 13.912C77.1487 14.776 74.9407 16.696 71.0687 16.696C68.1247 16.696 66.4927 14.712 66.4927 12.504C66.4927 7.256 71.1327 7.16 85.9487 4.344C85.9487 4.344 86.0127 4.344 86.0447 4.376C87.8687 1.944 90.3007 0.247999 93.7567 0.247999C95.5487 0.247999 96.9567 0.759998 96.9567 2.072ZM93.795 27.096C92.7283 27.096 91.907 26.6693 91.331 25.816C90.755 24.9413 90.467 23.7573 90.467 22.264C90.467 21.816 90.4777 21.4747 90.499 21.24C90.7763 18.1467 91.587 14.9253 92.931 11.576C93.5923 9.976 94.4137 8.65333 95.395 7.608C96.3763 6.54133 97.411 6.008 98.499 6.008C99.139 6.008 99.651 6.22133 100.035 6.648C100.419 7.05333 100.611 7.56533 100.611 8.184V8.44C100.398 10.5947 99.523 12.8453 97.987 15.192C96.451 17.5387 94.755 19.4373 92.899 20.888C92.8137 21.5707 92.771 22.0933 92.771 22.456C92.771 24.184 93.283 25.048 94.307 25.048C95.3737 25.048 96.5577 24.3013 97.859 22.808C98.0083 22.6587 98.1897 22.584 98.403 22.584C98.6377 22.584 98.851 22.68 99.043 22.872C99.2563 23.0427 99.363 23.2667 99.363 23.544C99.363 23.8 99.235 24.0667 98.979 24.344C97.3577 26.1787 95.6297 27.096 93.795 27.096ZM97.699 8.632C96.803 8.632 95.8963 9.77333 94.979 12.056C94.083 14.3387 93.475 16.504 93.155 18.552C94.4137 17.144 95.5657 15.544 96.611 13.752C97.6777 11.96 98.2217 10.4667 98.243 9.272C98.243 8.84533 98.0617 8.632 97.699 8.632ZM100.9 27.16C99.8331 27.16 98.9584 26.776 98.2757 26.008C97.5931 25.24 97.2517 24.28 97.2517 23.128C97.2517 21.3787 97.8171 19.832 98.9477 18.488C100.1 17.1227 101.444 16.44 102.98 16.44C103.876 16.44 104.622 16.76 105.22 17.4C105.838 18.04 106.148 18.8507 106.148 19.832C106.148 20.0453 106.105 20.3867 106.02 20.856C107.406 20.6 108.782 19.704 110.148 18.168C110.233 18.0827 110.34 18.04 110.468 18.04C110.617 18.04 110.766 18.1467 110.916 18.36C111.065 18.552 111.14 18.7547 111.14 18.968C111.14 19.16 111.097 19.2987 111.012 19.384C109.582 21.1547 107.812 22.328 105.7 22.904C104.996 25.7413 103.396 27.16 100.9 27.16ZM101.38 25.112C101.934 25.112 102.446 24.8027 102.916 24.184C103.406 23.5653 103.684 22.9467 103.748 22.328C102.958 21.9867 102.564 21.5493 102.564 21.016C102.564 20.4827 102.841 19.9493 103.396 19.416C103.374 19.1387 103.3 18.936 103.172 18.808C103.065 18.68 102.905 18.616 102.692 18.616C101.881 18.616 101.188 19.096 100.612 20.056C100.036 20.9947 99.7477 21.976 99.7477 23C99.7477 24.408 100.292 25.112 101.38 25.112ZM117.521 17.496C116.775 19.736 116.295 21.8587 116.081 23.864L116.049 24.248C116.049 24.7387 116.199 24.984 116.497 24.984C117.18 24.9413 118.065 24.3227 119.153 23.128C119.431 22.9147 119.655 22.808 119.825 22.808C120.017 22.808 120.241 22.936 120.497 23.192C120.753 23.4267 120.881 23.6507 120.881 23.864C120.881 24.3547 120.22 25.0267 118.898 25.88C117.596 26.712 116.551 27.128 115.761 27.128C114.503 27.128 113.863 26.4987 113.841 25.24L113.937 24.248C113.703 24.9093 113.255 25.56 112.593 26.2C111.932 26.84 111.143 27.16 110.225 27.16C109.308 27.16 108.615 26.8507 108.145 26.232C107.697 25.6133 107.473 24.8133 107.473 23.832C107.473 22.552 107.687 21.2187 108.113 19.832C108.561 18.4453 108.913 17.5387 109.169 17.112C109.425 16.664 109.756 16.44 110.161 16.44C110.588 16.44 110.908 16.5253 111.121 16.696C111.335 16.8453 111.441 16.9947 111.441 17.144C111.441 17.272 111.185 18.0507 110.673 19.48C110.161 20.9093 109.863 22.168 109.777 23.256V23.48C109.777 24.5253 110.14 25.048 110.865 25.048C111.441 25.048 112.028 24.7173 112.625 24.056C113.244 23.3733 113.724 22.4453 114.065 21.272L114.929 18.072C115.143 17.368 115.345 16.92 115.537 16.728C115.751 16.536 116.017 16.44 116.337 16.44C116.679 16.44 116.967 16.536 117.201 16.728C117.436 16.92 117.553 17.1333 117.553 17.368L117.521 17.496ZM121.287 22.968C121.671 21.752 122.386 20.3653 123.431 18.808C124.498 17.2507 125.362 16.472 126.023 16.472C126.962 16.472 127.431 16.8347 127.431 17.56C127.431 18.0293 127.314 18.5733 127.079 19.192C126.866 19.7893 126.759 20.152 126.759 20.28C126.759 20.6 126.983 20.76 127.431 20.76C127.901 20.76 128.658 20.4507 129.703 19.832C129.746 19.8107 129.831 19.8 129.959 19.8C130.087 19.8 130.247 19.9173 130.439 20.152C130.653 20.3867 130.759 20.6 130.759 20.792C130.759 20.9627 130.717 21.0907 130.631 21.176C129.351 22.328 128.103 22.904 126.887 22.904C125.437 22.904 124.711 22.2853 124.711 21.048C124.711 21.0053 124.882 20.312 125.223 18.968C125.202 18.968 125.031 19.224 124.711 19.736C123.709 21.4 122.727 23.544 121.767 26.168C121.49 26.7227 121.031 27 120.391 27C119.517 27 119.079 26.296 119.079 24.888V24.632C119.079 22.328 119.41 20.0773 120.071 17.88C120.391 16.92 120.903 16.44 121.607 16.44C121.885 16.44 122.109 16.5253 122.279 16.696C122.45 16.8667 122.535 17.08 122.535 17.336L121.287 22.968Z" fill="black"/>
</svg>
