<?xml version="1.0" encoding="UTF-8"?>
<svg id="Layer_2" data-name="Layer 2" xmlns="http://www.w3.org/2000/svg" xmlns:xlink="http://www.w3.org/1999/xlink" viewBox="0 0 43.13 37.24">
  <defs>
    <style>
      .cls-1 {
        fill: #902f37;
      }

      .cls-1, .cls-2, .cls-3, .cls-4, .cls-5, .cls-6, .cls-7, .cls-8, .cls-9, .cls-10, .cls-11, .cls-12, .cls-13, .cls-14, .cls-15, .cls-16, .cls-17, .cls-18, .cls-19, .cls-20, .cls-21, .cls-22, .cls-23, .cls-24, .cls-25, .cls-26, .cls-27, .cls-28, .cls-29, .cls-30, .cls-31, .cls-32, .cls-33, .cls-34 {
        stroke-width: 0px;
      }

      .cls-2 {
        fill: #98e4e4;
      }

      .cls-3 {
        fill: #9aa2a5;
      }

      .cls-4 {
        fill: #56c4ca;
      }

      .cls-5 {
        fill: url(#linear-gradient);
      }

      .cls-6 {
        fill: #0c0e0d;
      }

      .cls-7 {
        fill: #0b2b2d;
      }

      .cls-8 {
        fill: #b9d4e0;
      }

      .cls-9 {
        fill: #e8e2e1;
      }

      .cls-10 {
        fill: #95cbd3;
      }

      .cls-11 {
        fill: #dc4048;
      }

      .cls-12 {
        fill: #dfd099;
      }

      .cls-13 {
        fill: #ffd3cf;
      }

      .cls-14 {
        fill: #bc2433;
      }

      .cls-15 {
        fill: #335256;
      }

      .cls-16 {
        fill: #d8ebf3;
      }

      .cls-17 {
        fill: #1ba7ba;
      }

      .cls-18 {
        fill: #3d311b;
      }

      .cls-19 {
        fill: #1c969e;
      }

      .cls-20 {
        fill: #f3f4f7;
      }

      .cls-21 {
        fill: #331313;
      }

      .cls-22 {
        fill: #bfe4ed;
      }

      .cls-23 {
        fill: #258aad;
      }

      .cls-24 {
        fill: url(#linear-gradient-2);
      }

      .cls-25 {
        fill: #461416;
      }

      .cls-26 {
        fill: #0c727c;
      }

      .cls-27 {
        fill: #d29893;
      }

      .cls-28 {
        fill: #fbe099;
      }

      .cls-29 {
        fill: #3e2621;
      }

      .cls-30 {
        fill: #221919;
      }

      .cls-31 {
        fill: #02586b;
      }

      .cls-32 {
        fill: #413023;
      }

      .cls-33 {
        fill: #752b20;
      }

      .cls-34 {
        fill: #0d818b;
      }
    </style>
    <linearGradient id="linear-gradient" x1="36.15" y1="19.54" x2="26.27" y2="28.71" gradientUnits="userSpaceOnUse">
      <stop offset="0" stop-color="#3e1411"/>
      <stop offset="1" stop-color="#0b0a08"/>
    </linearGradient>
    <linearGradient id="linear-gradient-2" x1="8.76" y1="25.76" x2="19.36" y2="25.88" gradientUnits="userSpaceOnUse">
      <stop offset="0" stop-color="#641d1f"/>
      <stop offset="1" stop-color="#2b0d08"/>
    </linearGradient>
  </defs>
  <g id="Layer_1-2" data-name="Layer 1">
    <g>
      <path class="cls-28" d="M35.39,30.84c-.06,0-.12,0-.19,0-2.35.21-3.76,1.24-4.09,1.21-.06,0-.07-.17-1.12-.28l-.09-.05c.25-.28.71-.92,1.09-.98.45-.06,1,.4,1.07.42,1.12.21-.08-2.02,2.49-1.88-.21-2.14,1.03-1.9,1.28-2.02.47-.22.34-1.59.49-2.11.1-.34.38-.62.51-.95,4.62,1.7,3.76,2.87.44,5.3-.58.43-1.46.87-1.88,1.35Z"/>
      <path class="cls-12" d="M23.91,6.82c-2.48,1.34-5.2,4.11-6.41,6.67l-.14-.12c-.04-.83,0-1.69.19-2.51.37-1.74,1.55-3.76,2.51-5.25,1.12-.7.89-.13,2.21.56.52.27,1.1.46,1.65.65Z"/>
      <path class="cls-28" d="M25.31,6.49c-.11.11-.22.25-.33.37-.23.26-.55.56-.7.88-2.27,2.13-4.03,4.81-5.16,7.71-.13-.11-.24-.24-.42-.28.23-.87-.56-1.06-1.25-1.02,0-.26-.08-.53-.09-.79l.14.12c1.21-2.55,3.93-5.33,6.41-6.67.69-.38,1.23-.73,1.39-.33Z"/>
      <g>
        <path class="cls-28" d="M40.13,16.11c-.38,1.8-1.54,2.85-3.07,3.76-.47-.98-1.76-1.92-2.79-2.23,0-.02-.23-.19-.23-.28,1.58-.09,3.49.03,4.41-1.51.14-.24.83-1.9.93-2.21.55.73.68,1.58.74,2.46Z"/>
        <path class="cls-12" d="M39.8,19.13c-.04.15-.58.69.14,1.35,0,.7.07,1.42-.19,2.09-.77-.39-1.63-.63-2.42-.98.02-.73.04-1.05-.28-1.72,1.53-.92,2.68-1.96,3.07-3.76.09,1.27.04,1.82-.33,3.02Z"/>
      </g>
      <path class="cls-9" d="M4,18.95c.31.58.91,1.38.37,2-1.18-.93-1.87-.21-1.67-.09.7-.08,1.34.58,1.18,1.28-.35,1.59-4.23-.74.12-3.18Z"/>
      <path class="cls-9" d="M39.94,20.48c-.72-.65-.18-1.2-.14-1.35.36-.31.64-.69.86-1.12.68.41,1.48,1.68,1,2.44-.35.56-1.29.41-1.72.02Z"/>
      <path class="cls-20" d="M35.2,30.84c-.75.56-3.14,1.89-3.88,2.14-.08.03-.32.09-.35,0,.34-.19.47-.65.14-.88v-.05c.33.03,1.73-1,4.09-1.21Z"/>
      <g>
        <path class="cls-28" d="M12.15,27.45c-1.11.99-2.36,1.88-3.49,2.88-.01,0-.03,0-.05,0-1.37-.33-5-1.49-5.2-3.14-.22-1.81,3.59-3.73,5.02-4.25.16.19.56.49.74.72.61.77.81,2.06,1.88,1.51.04,1.02.52,1.33,1.09,2.28Z"/>
        <path class="cls-20" d="M7.14,20.76c.02.12-.03.33,0,.44.08.36,1.01,1.39,1.3,1.74-1.43.52-5.24,2.45-5.02,4.25.2,1.64,3.84,2.81,5.2,3.14-.51.87-4.77.48-5.65.23-2.11-.61-3.66-2.69-2.67-4.86.81-1.78,4.96-4.22,6.83-4.95Z"/>
        <g>
          <path class="cls-12" d="M12.53,28.15c.26.4.5.84.79,1.21-.57.18-2.89,1.23-3.16,1.25-.32.03-.71-.13-1.02-.19,1.05-.85,2.25-1.53,3.39-2.28Z"/>
          <path class="cls-12" d="M12.53,28.15c-1.14.74-2.34,1.42-3.39,2.28-.16-.03-.31-.06-.46-.09,1.13-1,2.38-1.89,3.49-2.88.22.36.35.66.37.7Z"/>
        </g>
      </g>
      <path class="cls-28" d="M17.41,14.16s-.28.07-.33.09c-.04-.07-.09-.12-.14-.19l.19-.02c-.37-.69-.49-1.49-.56-2.25.13-.07.63-.51.84-.65-.18,1-.19,2.02,0,3.02Z"/>
      <path class="cls-12" d="M16.57,11.79c.07.77.19,1.56.56,2.25l-.19.02c-.48-.64-1.15-1.44-1.72-2,.46-.05.93-.07,1.35-.28Z"/>
      <path class="cls-32" d="M15.22,12.07c.57.56,1.23,1.36,1.72,2,.05.06.1.12.14.19-.03.01-.06.03-.09.05-.04-.11-.12-.19-.19-.28-1.66-2.17-3.38-3.41-5.62-4.88-.94-.62-2.99-1.95-3.9-2.37v-.05c.71.44,1.5.77,2.21,1.21,1.98,1.24,4.06,2.49,5.74,4.14Z"/>
      <path class="cls-30" d="M7.27,6.72v.05c-.91-.42-2.84-.7-2.11-1.3.7-.07,2,1.18,2.11,1.25Z"/>
      <path class="cls-20" d="M7.65,10.3c-.56.95-1.06-.27-2.09-.65,1.33.12,1.5.43,2.09.65Z"/>
      <path class="cls-30" d="M20.57,4.77l-.09-.05c.17-.31.69-1.83,1-1.86.79.12-.33,1.05-.91,1.91Z"/>
      <path class="cls-20" d="M5.42,9.7l.3.37c-.25-.06-.51-.08-.77-.09-.51-.03-1.28-.12-1.77,0,.49-.5,1.63-.31,2.23-.28Z"/>
      <path class="cls-29" d="M20.57,4.77c-.18.27-.33.56-.51.84-.96,1.49-2.14,3.51-2.51,5.25h-.05c.59-2.69,1.92-4.15,2.97-6.13l.09.05Z"/>
      <path class="cls-18" d="M17.36,13.37c.01.26.09.53.09.79-.04,0-.04,0-.05,0-.19-1-.18-2.02,0-3.02,0-.01.04-.03.09-.28h.05c-.18.82-.23,1.67-.19,2.51Z"/>
      <g>
        <path class="cls-28" d="M16.8,14.02c-.16-.06-.16,0-.16,0-.1-.05-1.06-.83-1.91-1.3-1.27-.71-4.45-2.1-5.83-2-.15-.07-.32-.12-.46-.19.84-.54,1.89-.82,2.74-1.39,2.24,1.47,3.97,2.71,5.62,4.88Z"/>
        <path class="cls-28" d="M16.8,14.02c.07.09.15.17.19.28-.62.34-.96,1.18-.35,1.63.19.13.7-.08.07.84-.76-.69-1.54-1.34-2.32-2-.96-.82-1.9-1.62-2.93-2.37-.82-.6-1.64-1.23-2.56-1.67,1.39-.11,4.56,1.29,5.83,2,.85.47,1.8,1.25,1.91,1.3,0,0,0-.06.16,0Z"/>
      </g>
      <path class="cls-28" d="M22.94,26.85c.06,0,.05-.07.09-.02.14.13,1.37,2.26,2.42,3-.89-.13-1.8-.2-2.7-.23-.75-.02-1.53-.02-2.28.05-.03-.17-.11-.34-.14-.51-.22-1.26-.29-2.71-.37-3.16,0-.03,0-.06,0-.09.73.98,1.51,1.94,2.49,2.7.16-.02.46-1.36.49-1.72Z"/>
      <path class="cls-27" d="M30,31.77s-.09,0-.14,0c0-.06.04-.04.05-.05l.09.05Z"/>
      <g>
        <path class="cls-20" d="M39.76,22.57c5.8,2.99,3.34,7.7-1.51,8.18-.95.09-1.91.02-2.86.09.43-.48,1.3-.92,1.88-1.35,3.32-2.43,4.18-3.59-.44-5.3.32-.8.49-1.74.51-2.6.79.35,1.65.58,2.42.98Z"/>
        <g>
          <path class="cls-11" d="M13.32,29.36c.47.61,1.07,1.16,1.67,1.63-.24.06-.47.13-.7.23-1.2.13-5,1.84-2.72,3.25,1.33.82,3.89.94,5.41.79.49-.05.98-.23,1.44-.23-2.05.76-4.04,1.77-6.23,2.09-.34-.24-1.18-.17-1.84-.33-.58-.14-1.58-.6-2.04-.98-.76-.61-.97-1.2-1.28-2.09.54-1.37,1.84-2.44,3.11-3.11.27-.03,2.59-1.08,3.16-1.25Z"/>
          <path class="cls-25" d="M14.99,30.98s.27.05.81.46c.7.53,1.45,1.46,2.32,1.67.73.18,2.01.19,2.44-.56-.11.72-.09,1.11-.51,1.81-.21.07-1.04.43-1.63.65-.46,0-.95.18-1.44.23-.08-.22-.88-.16-1.37-.28-.81-.19-3.16-1.16-3.04-2.21.06-.57,1.23-1.33,1.72-1.56.23-.1.46-.17.7-.23Z"/>
          <path class="cls-1" d="M29.86,32.52c-.88.28-1.78.56-2.7.7-2.49.37-3.91.1-7.11,1.16.42-.7.4-1.1.51-1.81.03-.18.02-.38.05-.56.02-.13.02-.24.05-.37.01-.08.05-.45.07-.46.06-.04,1.26.08,1.44.09,2.48.21,5.49,1.39,7.3,1.25.11,0,.36-.18.39,0Z"/>
          <path class="cls-11" d="M12.2,37.12c-2.86.42-6.44-.11-5.16-3.39.31.89.52,1.48,1.28,2.09.46.37,1.46.84,2.04.98.66.16,1.5.09,1.84.33Z"/>
          <path class="cls-11" d="M31.11,32.1c.33.23.2.69-.14.88-.44.25-3.13.31-3.81.23.92-.14,1.81-.41,2.7-.7.42-.13.83-.29,1.25-.42Z"/>
          <path class="cls-1" d="M14.29,31.21c-.49.23-1.66.98-1.72,1.56-.11,1.04,2.23,2.02,3.04,2.21.49.12,1.29.06,1.37.28-1.52.15-4.09.03-5.41-.79-2.29-1.41,1.52-3.12,2.72-3.25Z"/>
          <path class="cls-25" d="M26.42,29.87c.26.37.61.71.93,1.02,1.08,1.04,1.14.72,2.51.88.05,0,.09,0,.14,0,1.05.11,1.06.27,1.12.28v.05c-.42.13-.84.28-1.25.42-.04-.18-.29,0-.39,0-1.81.14-4.81-1.04-7.3-1.25-.18-.02-1.38-.13-1.44-.09-.02.01-.06.38-.07.46v-.79c.02.08.04.24.12.23,1.46-.51,3-.86,4.53-1.07.37-.05.75-.07,1.12-.14Z"/>
          <path class="cls-1" d="M25.44,29.82l-.14.19c-1.53.21-3.07.56-4.53,1.07-.07,0-.09-.15-.12-.23-.07-.24-.02-.36-.05-.51.33-.11.66-.28,1-.37.8-.22,1.84-.27,1.16-.28l-.02-.09c.9.03,1.8.11,2.7.23Z"/>
          <path class="cls-11" d="M22.75,29.59l.02.09c.68,0-.36.06-1.16.28-.34.09-.67.26-1,.37-.04-.23-.09-.47-.14-.7.75-.07,1.53-.07,2.28-.05Z"/>
        </g>
      </g>
      <g>
        <g>
          <path class="cls-11" d="M20.89,18.25c.01.07-.01.17,0,.23.17.77.24.61.56,1.16l.09.14c1.07,1.82,2.29,3.53,3.35,5.37,1.02,1.79,1.98,3.64,2.83,5.51-.13.05-.29.11-.37.23-.32-.31-.67-.65-.93-1.02-.37-.53-.91-1.54-1.21-2.14-.53-1.05-.89-2.2-1.49-3.23-.22-.37-.96-1.54-1.21-1.51-.4-1.25-.85-1.69-1.21-2.32-.12-.21-.28-.42-.37-.65-.04-.12-.18-.42-.19-.44-.02-.13-.03-1.43.14-1.32Z"/>
          <path class="cls-1" d="M25.21,27.73c.3.6.84,1.61,1.21,2.14-.37.07-.74.09-1.12.14l.14-.19c-1.05-.74-2.28-2.87-2.42-3-.05-.04-.04.02-.09.02.03-.31.02-1.48,0-1.81.38.51,1.8,2.43,2.09,2.67.11.09.04.04.19.02Z"/>
          <path class="cls-14" d="M25.21,27.73c-.14.02-.08.07-.19-.02-.29-.25-1.71-2.16-2.09-2.67-.02-.25-.06-.5-.09-.74-.05-.35-.21-.95-.33-1.3.25-.03.99,1.14,1.21,1.51.6,1.03.96,2.18,1.49,3.23Z"/>
        </g>
        <path class="cls-20" d="M34.04,17.37c0,.09.22.26.23.28.06.11.16.23.02.33-1.25.15-2.53-.39-3.18-.46.77-.01,1.56-.16,2.32-.19.13,0,.29.06.6.05Z"/>
        <g>
          <path class="cls-20" d="M36.46.68c-.74.21-1.49.3-2.23.51-.18-.16-.3-.13-.33-.14,0,0,.02-.06-.09-.05.69-.28,1.43-.67,2.18-.74.36-.03.6-.09.46.42Z"/>
          <path class="cls-6" d="M33.9,1.06c-.63.32-1.28.61-1.91.93-.51.26-.99.59-1.53.79,1.33-.79,1.83-1.14,3.35-1.77.11-.02.09.04.09.05Z"/>
          <g>
            <path class="cls-2" d="M33.44,8.54c.09.2.82.26,1.18.37,3.34,1.03,2.2,2.07-.46,2.65-.56.12-1.45.12-1.7.33-.83-.1-1.68-.17-2.51-.28-.33-.04-1.39-.14-1.39-.26,1.65-2.02,2.07-2.9,4.88-2.81Z"/>
            <path class="cls-4" d="M33.67,8.54c.58.03,2.66.36,3.09.65.68.46.86,2.53.09,2.97-.72.42-2.77-.08-3.65-.19-.25-.03-.5-.06-.74-.09.24-.21,1.14-.2,1.7-.33,2.67-.58,3.81-1.62.46-2.65-.36-.11-1.1-.17-1.18-.37.08,0,.16,0,.23,0Z"/>
          </g>
          <g>
            <path class="cls-20" d="M26.1,5.84c.34-.29.71-.56,1.07-.84.26-.05,1.16-.41,1.25-.07.13.47-2.07,1.92-2.32.91Z"/>
            <path class="cls-20" d="M24.28,7.75c.14-.33.46-.62.7-.88.12-.01.82,0,.84.12l-1.6,1.42c-.16-.23-.03-.43.07-.65Z"/>
          </g>
          <path class="cls-30" d="M32.46,11.88c.25.03.5.06.74.09-.4.11-.15.18-.37.28-.14-.02-.28-.03-.42-.05,0-.03.01-.08-.02-.09-.17-.06-2.19-.2-2.65-.23-.09-.32.26,0,.21-.28.83.11,1.67.17,2.51.28Z"/>
          <g>
            <path class="cls-20" d="M32.09,2.08c-.25.15-.38.22-.6.42-.82.71.07.14.14.26-.9.89-.3.36.42.07-.41.29-2.31,1.63-2.67,1.53-.24-.18-.32-.45-.3-.74.45-.3.93-.56,1.39-.84.54-.2,1.02-.53,1.53-.79l.09.09Z"/>
            <path class="cls-8" d="M32.04,2.82c-.71.29-1.32.82-.42-.07-.07-.12-.96.45-.14-.26,1.47-.51,2.72-1.19.56.33Z"/>
          </g>
          <path class="cls-20" d="M39.2,2.4c.04.18.05.13.05.14.06.93-.98.55-.6-.19.26-.21.33-.15.56.05Z"/>
          <path class="cls-23" d="M34.23,1.19c-.73.21-1.48.5-2.14.88l-.09-.09c.63-.32,1.28-.6,1.91-.93.02,0,.14-.02.33.14Z"/>
          <g>
            <path class="cls-6" d="M39.11,1.94c-.04.29.07.35.09.46-.23-.19-.3-.26-.56-.05l-1.39-.28c-.1-.18-.6-.35-.79-.37-.03,0-.06,0-.09,0-1.94-.17-6.01,2.18-6.27,2.67-.34.64.14,1.17,1,.67.11,1.02,2.34.71,3.14.7.26,0,.53.01.79,0,.32-.01.66-.03.98-.05v.23c-2.28-.02-5.62,1.12-2.28,1.91l-.05.7c-.08,0-.16,0-.23,0-2.81-.09-3.23.79-4.88,2.81,0,.11,1.07.21,1.39.26.05.28-.3-.04-.21.28.46.03,2.48.17,2.65.23.04.01.02.06.02.09-.03,0-.06,0-.09,0-.73-.08-3.56-.44-3.97-.37-.34.05-5.25,2.97-5.92,3.39-1.17.73-1.42.78-1,1.12.69.55,3.4,1.12,4.34,1.3-1.67-.01-3.36.08-5-.33-.09.06.09.79.12.93-.17-.1-.16,1.2-.14,1.32,0,.02.14.33.19.44-.25-.35-.32-.08-.51.05-1.06.68-.86.83-.46,1.97.58,1.67,1.72,3.29,2.56,4.83.07-.27.07-.54.09-.81.06-.67.05-.88-.05-1.53.15-.06.34.76.14.81.45.14-.04-.76.14-1.05.04.24.08.5.09.74.02.33.03,1.5,0,1.81-.03.36-.33,1.7-.49,1.72-.98-.76-1.75-1.71-2.49-2.7,0-.01,0-.03,0-.05-.02-.1-.6-1.24-.84-1.91-.51-1.45-.97-4.46-1.18-4.55-.03-.01-.14,0-.21,0-.07-.28-.17-.77-.23-.98-.02-.06-.05-.26-.12-.28-.83.68-1.41,1.59-2.11,2.37.59-.89,1.13-1.8,1.49-2.81-.77-.17-1.55-.23-2.32-.35-.3-.05-1.83-.41-1.97-.37-.18.04-1.01,1.42-1.18,1.49-.04.01-.06.04-.09.05.3-.53.58-1.08.88-1.6-.37-.11-2.37-.77-2.53-.72-.18.05-1.25,1.76-1.46,2.37l-.23.14c.14-.78.54-1.37.46-2.37-.08-1.09-.82-1.54-1.44-1.25l-.42-.33c.46-1.35.09-2.1-1.02-1.49v-.05c.13-.09,1.18-1.02,1.21-1.09.06-.14.05-.4,0-.53-.11-.28-.33-.18-.23-.33.34.08.45.32.6-.26-.95-.57-2.32-1.1-3.39-.63-.02-.36,1.22-.13,1.35-.37.26.02.51.03.77.09l-.3-.37s-.03-.06.14-.05c1.03.38,1.53,1.6,2.09.65.04.02.03-.1.79.23.15.07.32.12.46.19.92.44,1.74,1.08,2.56,1.67-.15-.02-.31-.08-.37.09-.38-.22-2.02-1.07-2.32-1.16-.09-.03-.18-.14-.49-.09-.81.59-.11,1.34-.12,1.42,0,.17-1.59.93.84,2.63,1.39.97,3.58,1.37,5.25,1.67,1.13.21,1.66.62,2.28,0,.07-.07.13-.1.19-.19.63-.91.12-.7-.07-.84-.61-.45-.27-1.29.35-1.63.03-.02.06-.03.09-.05.05-.02.29-.09.33-.09,0,0,0,0,.05,0,.69-.04,1.49.15,1.25,1.02-.01.05-.11.23-.14.28-.03.05-.29.25-.37.33-.06.06-.36.23-.37.3-.03.24,1.14,2.51,1.56,2.76.11.01.05-.09.07-.19.02-.11.04-.47.05-.6,0-.23-.04-.39-.05-.6l.09-.05c.06.23.6,1.98.77,1.91.43-1.54.04-2.84-1.18-3.86,1.12-2.9,2.89-5.58,5.16-7.71-.1.22-.23.42-.07.65l1.6-1.42c-.02-.12-.71-.13-.84-.12.11-.12.21-.26.33-.37.24-.24.53-.43.79-.65.25,1.02,2.45-.44,2.32-.91-.09-.34-1,.02-1.25.07.76-.59,1.07-.84,1.91-1.39-.02.29.06.57.3.74.36.1,2.26-1.25,2.67-1.53,2.17-1.51.92-.84-.56-.33.23-.2.35-.27.6-.42.66-.38,1.41-.67,2.14-.88.74-.21,1.49-.3,2.23-.51,1.17.04,1.78.63,2.65,1.25Z"/>
            <g>
              <g>
                <path class="cls-2" d="M30.46,7.42c-.08.67-1.62,2.91-2.14,3.46-.89.95-1.72,1.22-2.79,1.84.62-2.15,2.55-5.08,4.93-5.3Z"/>
                <g>
                  <path class="cls-4" d="M30.46,7.42c-2.37.22-4.31,3.15-4.93,5.3-1.01.58-2.04,1.1-3.02,1.72,0-.03.01-.08-.02-.09-.21-.07-1.76-.03-2.21-.05,1.04-2.36,3.53-5.96,6.02-6.88,1.24-.46,2.81-.63,4.09-.33.22.17.08.27.07.33Z"/>
                  <path class="cls-34" d="M22.52,14.44c-.28.18-1.85,1.39-1.97,1.39-.04,0-.71-.34-.72-.39.09-.41.3-.76.46-1.14.45.02,2-.03,2.21.05.04.01.02.06.02.09Z"/>
                </g>
                <path class="cls-20" d="M35.23,1.47c1.43-.14-1.18.65-1.28.53-.12-.16,1.08-.51,1.28-.53Z"/>
              </g>
              <path class="cls-23" d="M17.38,14.25c.19-.02.47.02.58.16-.31.38-.67-.05-1.05.12-.12-.05.29-.26.46-.28Z"/>
              <path class="cls-13" d="M19.96,25.87s0,.06,0,.09v-.14s0,.03,0,.05Z"/>
            </g>
          </g>
          <g>
            <path class="cls-2" d="M32.32,12.21c1.01.63,2.55.97,3.72,1.28-1.65.28-3.35.22-5.02.35-2.72.21-4.87.52-7.53,1.16-.33.08-.77.26-1.07.23.67-.42,5.59-3.34,5.92-3.39.42-.07,3.25.3,3.97.37Z"/>
            <path class="cls-4" d="M32.41,12.21c.14.01.28.03.42.05,1.34.15,5.06.34,5.07,1.23.04.75-.68.87-.7.93,0,.02.14.29.14.33.09,2.31-3.3,2.33-3.86,2.53-1.11-.64.88-1.29.46-2.25-.19-.43-1.62-.91-2.07-1-.39-.08-.9-.04-.86-.19,1.67-.13,3.37-.07,5.02-.35-1.16-.3-2.71-.65-3.72-1.28.03,0,.06,0,.09,0Z"/>
            <path class="cls-26" d="M29.39,17.55l-.05.05c-.83-.07-1.73.06-2.56.14v.05c-.33-.16-.61-.06-1.02-.14-.95-.19-3.66-.75-4.34-1.3-.42-.33-.18-.38,1-1.12.3.03.74-.15,1.07-.23,0,.23.48-.03.81,0,.82.07,4.52,2.5,5.09,2.56Z"/>
            <path class="cls-19" d="M33.48,17.27s-.05,0-.05.05c-.77.03-1.55.17-2.32.19-.59-.06-1.63.06-1.72.05-.57-.06-4.27-2.49-5.09-2.56-.33-.03-.82.23-.81,0,2.66-.64,4.81-.95,7.53-1.16-.04.14.47.11.86.19.45.09,1.88.57,2.07,1,.42.97-1.57,1.61-.46,2.25Z"/>
          </g>
          <g>
            <path class="cls-16" d="M35.99,5.93c.19,0,.43-.02.6,0-.26.52-1.23,1.22-.84,1.21.14.01.25.09.37.14.39.78-.17.58-.65.88-.53-.1-1.3-.22-1.77-.33-3.35-.78,0-1.92,2.28-1.91Z"/>
            <path class="cls-2" d="M35.76,7.14c-.39,0,.58-.69.84-1.21,1.22.13.67,1.27-.84,1.21Z"/>
            <path class="cls-10" d="M35.48,8.17c.48-.3,1.04-.1.65-.88.46.19,1.18.43,1.12,1.05-.12.31-1.04-.03-1.77-.16Z"/>
          </g>
          <path class="cls-20" d="M39.66,2.68c-.01-.15-.08-.31-.05-.46.11-.5.99-.14.65.58-.35.3-.41-.01-.6-.12Z"/>
          <g>
            <path class="cls-25" d="M39.62,8.4c-.82-2.53-1.07.37,0,.09-.05.18-.27.81-.28.86-.01.11.12.44.09.7-.06.49-.36.99-.23,1.49.12.46.74.37.19,2.11-.1.31-.79,1.97-.93,2.21-.93,1.54-2.83,1.42-4.41,1.51-.31.02-.48-.05-.6-.05,0-.05.03-.04.05-.05.56-.2,3.95-.22,3.86-2.53,0-.03-.14-.31-.14-.33.02-.06.74-.18.7-.93,0-.89-3.72-1.08-5.07-1.23.22-.1-.03-.17.37-.28.88.1,2.93.6,3.65.19.76-.44.59-2.51-.09-2.97-.43-.3-2.51-.62-3.09-.65l.05-.7c.47.11,1.24.23,1.77.33.72.13,1.64.47,1.77.16.07-.61-.66-.85-1.12-1.05-.12-.05-.24-.13-.37-.14,1.51.06,2.06-1.08.84-1.21-.18-.02-.41,0-.6,0v-.23c.4-.03,1.37.12,1.53-.81.15-.87-.2-1.1-.98-1.09-.02,0-.06.03-.33.05l-.3-.05c-.04-.09.18.01.07-.14.17-.05.29-.07.46-.14.01,0,.03,0,.05,0,.51-.23,1.09-.84.74-1.44l1.39.28c-.37.74.66,1.11.6.19.19.16.29,0,.3,0,.06.02,0,.08.12.14.2.1.26.41.6.12.33-.72-.54-1.08-.65-.58-.17-.07-.37-.18-.51-.28-.87-.62-1.48-1.22-2.65-1.25.13-.51-.1-.45-.46-.42.67-.28,2.44-.33,3.14-.19,2.51.53,2.06,4.32,1.42,6.11-.26.71-.67,1.27-.93,2.21Z"/>
            <g>
              <path class="cls-20" d="M39.62,8.4s0,.07,0,.09c-1.07.28-.82-2.63,0-.09Z"/>
              <path class="cls-21" d="M39.62,2.22c-.03.15.03.31.05.46-.12-.06-.06-.12-.12-.14-.02,0-.11.16-.3,0,0,0-.01.04-.05-.14-.02-.12-.14-.18-.09-.46.14.1.35.21.51.28Z"/>
              <path class="cls-20" d="M39.87,3.89c1.19.32-.27,1.74-.3.26l.3-.26Z"/>
              <path class="cls-20" d="M38.78,4.26c-.22.33.44.83-.23.79-.43-.21-.27-.88.23-.79Z"/>
              <path class="cls-20" d="M38.53.45c1.2-.02.4,1.07-.16.21l.16-.21Z"/>
              <path class="cls-20" d="M38.55,5.05c.67.04,0-.46.23-.79.56.1.57,1.14-.23.79Z"/>
              <path class="cls-20" d="M39.59,5.52h.23c.63.73-.74.81-.23,0Z"/>
            </g>
          </g>
          <g>
            <g>
              <path class="cls-20" d="M36.36,1.71c-1.22.79-.66.99.09,1.81-.18.07-.3.09-.46.14-.41.13-.84.21-1.25.33-1.14.31-2.32.51-3.42.98,1.1-.25,2.37-.73,3.46-.93.24-.05.5-.06.74-.09-.3.69-.89,1.19-1.3,1.81-.8,0-3.03.32-3.14-.7-.86.49-1.34-.04-1-.67.26-.49,4.33-2.85,6.27-2.67Z"/>
              <g>
                <path class="cls-10" d="M37.25,2.08c.35.6-.24,1.22-.74,1.44l-.05-1.81c.19.03.69.19.79.37Z"/>
                <path class="cls-2" d="M36.46,1.71l.05,1.81s-.03,0-.05,0c-.75-.82-1.31-1.02-.09-1.81.03,0,.06,0,.09,0Z"/>
              </g>
              <path class="cls-6" d="M36.23,3.84c-.23.01-.47.06-.7.09-.25.03-.5.05-.74.09l-.05-.05c.42-.11.84-.2,1.25-.33.11.15-.11.05-.07.14l.3.05Z"/>
            </g>
            <g>
              <path class="cls-4" d="M35.99,5.7c-.32.02-.65.03-.98.05.43-.7,1.19-1.22,1.53-1.95.77,0,1.13.22.98,1.09-.16.94-1.13.79-1.53.81Z"/>
              <path class="cls-2" d="M35.02,5.75c-.26.01-.53,0-.79,0,.41-.62,1-1.13,1.3-1.81.23-.03.47-.08.7-.09.26-.02.31-.05.33-.05-.35.73-1.1,1.25-1.53,1.95Z"/>
              <path class="cls-3" d="M34.78,4.03c-1.09.2-2.37.68-3.46.93,1.09-.47,2.27-.67,3.42-.98l.05.05Z"/>
            </g>
          </g>
        </g>
        <g>
          <path class="cls-4" d="M25.77,17.65c.41.08.69-.02,1.02.14.23.12,3.49,3.54,3.58,3.79.15.39-.04,1.68-.16,1.74-2.39-.6-4.59-1.3-6.62-2.74-.75-.53-1.8-1.57-2.7-2.09-.01-.07.01-.16,0-.23-.02-.14-.21-.86-.12-.93,1.63.41,3.33.31,5,.33Z"/>
          <path class="cls-5" d="M31.11,17.51c.65.07,1.93.61,3.18.46.14-.09.03-.22-.02-.33,1.03.31,2.32,1.25,2.79,2.23.32.67.3.99.28,1.72-.02.86-.19,1.8-.51,2.6-.13.33-.42.61-.51.95-.15.52-.02,1.89-.49,2.11-.25.12-1.49-.12-1.28,2.02-2.57-.14-1.37,2.09-2.49,1.88-.07-.01-.62-.48-1.07-.42-.38.05-.84.7-1.09.98,0,0-.05-.01-.05.05-1.37-.17-1.43.16-2.51-.88.08-.13.24-.19.37-.23.07-.02.68-.1.98-.63.28-.49.05-.91.09-1.42.1.22.6,1.45.72,1.49.4.13,1.25-.75,1.14-1.7-.08-.69-2.63-5.38-3.18-5.69-.06-.03-1.07-.37-1.32-.46.47,0,1.48.53,1.56.56.72.23,1.85.31,2.49.7l-2.35-.65-.02.12c1.11,1.12,2.98,5.28,3.25,5.62,1.09,1.34,2.62-.49,1.58-2.35,0-.16.03-.06.14,0,1.44,1.52,3.08-.14,1.44-2.07-.76-.89-2.16-1.48-3.16-2.09,1.85.48,3.9,3.19,4.55,1.67.08-.86-.79-1.45-1.44-1.86.09-.26,1.24,1.13,1.77.28.58-.94-.63-1.93-1.39-2.32.05-.14,2.38,1.18-.02-1.09-1.38-.19-4.01-1.07-5.18-1.16l.05-.05c.09,0,1.13-.11,1.72-.05Z"/>
          <path class="cls-7" d="M32.79,26.24c-.11-.06-.14-.16-.14,0-.22-.39-2.12-2.53-2.46-2.74-.64-.39-1.76-.47-2.49-.7-.08-.03-1.09-.56-1.56-.56-.32-.12-.65-.24-.95-.42l-.02.09c-.36-.12-1.31-.97-1.58-1.35,2.03,1.44,4.23,2.14,6.62,2.74.13-.06.31-1.35.16-1.74-.09-.24-3.34-3.67-3.58-3.79v-.05c.63.29,3.69,3.61,3.76,3.88.1.35-.25,1.68-.23,1.77.02.1.93.9,1.35,1.39.35.41,1.05,1.39,1.12,1.46Z"/>
          <path class="cls-4" d="M29.35,17.6c1.17.1,3.8.97,5.18,1.16,2.41,2.27.07.96.02,1.09.76.39,1.97,1.39,1.39,2.32-.53.85-1.67-.54-1.77-.28.65.41,1.52.99,1.44,1.86-.65,1.52-2.71-1.19-4.55-1.67,1,.61,2.4,1.2,3.16,2.09,1.64,1.92,0,3.58-1.44,2.07-.07-.07-.77-1.05-1.12-1.46-.42-.49-1.33-1.3-1.35-1.39-.01-.09.33-1.41.23-1.77-.08-.27-3.14-3.59-3.76-3.88.83-.08,1.73-.21,2.56-.14Z"/>
          <g>
            <path class="cls-26" d="M23.59,20.57c.27.38,1.22,1.23,1.58,1.35,1.59,2,2.56,4.39,3.62,6.69-.04.51.18.93-.09,1.42-.3.52-.91.6-.98.63-.86-1.87-1.81-3.72-2.83-5.51-1.05-1.83-2.27-3.55-3.35-5.37-.05-.08-.09-.13-.09-.14-.32-.55-.39-.39-.56-1.16.89.52,1.95,1.56,2.7,2.09Z"/>
            <path class="cls-15" d="M21.54,19.78l-.09-.14s.05.06.09.14Z"/>
          </g>
          <path class="cls-4" d="M26.14,22.25c.25.1,1.26.43,1.32.46.55.31,3.1,5,3.18,5.69.11.95-.74,1.83-1.14,1.7-.12-.04-.62-1.26-.72-1.49-1.06-2.3-2.03-4.7-3.62-6.69l.02-.09c.3.18.63.29.95.42Z"/>
          <path class="cls-4" d="M30.18,23.5c.35.21,2.24,2.35,2.46,2.74,1.04,1.86-.49,3.69-1.58,2.35-.28-.34-2.14-4.5-3.25-5.62l.02-.12,2.35.65Z"/>
        </g>
        <g>
          <path class="cls-24" d="M11.27,18.57c-.02.09-.75,1.4-.88,1.67-.33.67-.93,1.7-.88,2.44.05.8.91,1.75,2.18,1.14.61-.29,1.84-1.56,2.37-2.09.04-.04.43-.32.7-.6-.14.24-.29.52-.46.74-.93,1.22-1.93,1.84-2,3.55-.09,2.18,1.06,2.11,1.16,2.28.02.04.05.54.23.84.26.41.56.32.6.37.06.07.19,1.12,1.14,1.37,1.36.36.44-1.43.72-2.11.06,1.03.03,3.23,1.23,3.69,1.2.46,1.01-.77.86-1.49h.05c.16.54.54,1.88,1.21,1.91.34.01.59-.22.6-.56.22-.18.32.22.51.28-.03.18-.02.38-.05.56-.43.75-1.71.74-2.44.56-.88-.22-1.63-1.14-2.32-1.67-.54-.42-.78-.44-.81-.46-.6-.47-1.21-1.02-1.67-1.63-.29-.37-.53-.81-.79-1.21-.02-.03-.15-.34-.37-.7-.57-.95-1.05-1.26-1.09-2.28-1.07.55-1.28-.74-1.88-1.51-.18-.23-.59-.53-.74-.72-.29-.35-1.22-1.39-1.3-1.74-.03-.12.02-.32,0-.44-.02-.11.05-.16,0-.3-.04-.11-.75-.78-.79-.93-.06-.22.06-.49-.05-.77.4-.21.99,1.15,1.12.7,0,0,.07.04.09.05.33,1.38.21-.17.33-.84l.23-.14c-.03.09-.03.19-.05.23-.43,1.56,0,2.16,1.09,3.25.09,0,.73-1.4.86-1.63.37-.65.83-1.26,1.21-1.91.04,0,.06-.03.09-.05,0,.04,0,.1,0,.14Z"/>
          <path class="cls-25" d="M3.84,11.79c-.88.61-.52.77-.37,1.25.04.13.27.86.35.88.15.05.66-.3.81-.37.26-.12.56-.22.79-.37v.05c-.14.07-1,.77-1.3.95.11.62.8.6.84.7.01.03-.17.38,0,.67-.02.22-.38.16-.23.39.83.78,2.14,3,2.7,3.51-.13.45-.71-.91-1.12-.7-.13-.35-.67-.25-.79-.44-.16-.25.17-1.58-1.12-1.3-.42-1.41-1.5-2.07-1.91-4.07.13-.73.62-1.1,1.35-1.16Z"/>
          <path class="cls-21" d="M4.95,9.98c-.13.24-1.36.01-1.35.37-.08.42,1.65.6,2.79.88-.1.14.12.05.23.33-.8-.61-3.26-.97-3.04,0,1.09-.05.59,0,.26.23-.72.06-1.22.44-1.35,1.16-.17-.84-.41-2.7.7-2.97.48-.12,1.26-.03,1.77,0Z"/>
          <path class="cls-33" d="M6.86,15.04s-.01.04-.09.09c-.82.6-.73,2.94.6,2.93-.04.08-.08.01-.09.12,0,.07.2,1.18.23,1.32-.03,0-.09-.04-.09-.05-.56-.5-1.87-2.73-2.7-3.51-.15-.23.21-.17.23-.39.29.48,1.03.5,1.49-.84l.42.33Z"/>
          <path class="cls-16" d="M10.81,15.37c1.13.34,2.41.98,3.44,1.58-1.67-.31-3.86-.71-5.25-1.67.48-.43,1.27-.07,1.81.09Z"/>
          <path class="cls-11" d="M19.12,23.92c.23.66.81,1.8.84,1.91v.14c.08.45.15,1.9.37,3.16-.61-1.59-1.17-3.18-1.58-4.83-.06-.23-.13-.46-.19-.7.18-.92.28.11.56.33Z"/>
          <path class="cls-1" d="M19.12,23.92c-.28-.22-.38-1.24-.56-.33-.32-1.4-.5-2.83-.84-4.23.07,0,.18-.01.21,0,.22.09.68,3.1,1.18,4.55Z"/>
          <path class="cls-1" d="M7.83,18.67c-.12.66,0,2.22-.33.84-.03-.14-.24-1.26-.23-1.32.01-.1.05-.04.09-.12.06-.11.11-.07.19-.19.33-.53.63-.93.74-1.58.08,1-.33,1.59-.46,2.37Z"/>
          <g>
            <path class="cls-4" d="M8.81,11.56c.44.17,3.1,1.84,3.65,2.23,1.4.99,2.63,2.22,4.07,3.16-.62.62-1.14.21-2.28,0-1.03-.6-2.31-1.24-3.44-1.58-1.18-.83-1.86-2.51-2.18-3.88.04-.08.12.04.19.07Z"/>
            <path class="cls-4" d="M8.76,11.33l.05.23c-.07-.03-.14-.15-.19-.07.33,1.37,1.01,3.05,2.18,3.88-.54-.16-1.34-.53-1.81-.09-2.43-1.69-.84-2.46-.84-2.63,0-.08-.69-.82.12-1.42.3-.04.4.07.49.09Z"/>
            <path class="cls-2" d="M11.09,12.49c1.15.68,2.16,1.58,3.3,2.28.78.66,1.57,1.31,2.32,2-.06.09-.12.12-.19.19-1.44-.94-2.67-2.17-4.07-3.16-.55-.39-3.2-2.06-3.65-2.23l-.05-.23c.3.09,1.94.94,2.32,1.16Z"/>
            <path class="cls-7" d="M11.46,12.39c1.02.75,1.96,1.55,2.93,2.37-1.14-.7-2.15-1.6-3.3-2.28.06-.17.22-.11.37-.09Z"/>
          </g>
          <g>
            <g>
              <path class="cls-17" d="M20.43,20.06c.37,2.11,1.16,4.12,2.18,5.99-.02.27-.02.55-.09.81-.84-1.54-1.98-3.17-2.56-4.83-.4-1.14-.6-1.29.46-1.97Z"/>
              <path class="cls-2" d="M20.94,20.02c.09.23.25.44.37.65.45,1.28,1.06,2.5,1.25,3.86.09.65.11.86.05,1.53-1.02-1.88-1.81-3.89-2.18-5.99.2-.13.26-.4.51-.05Z"/>
            </g>
            <path class="cls-30" d="M22.52,22.99c.11.35.27.95.33,1.3-.18.28.31,1.19-.14,1.05.2-.05,0-.87-.14-.81-.19-1.35-.81-2.58-1.25-3.86.35.63.81,1.07,1.21,2.32Z"/>
            <g>
              <path class="cls-4" d="M19.12,15.46c1.23,1.02,1.62,2.32,1.18,3.86-.17.07-.71-1.68-.77-1.91-.04-.18-.05-.37-.07-.37-.04,0-.03.36-.02.42,0,.21.05.38.05.6l-.14.02c-.03-.74-.1-2.25-.79-2.63.03-.05.13-.23.14-.28.17.04.29.17.42.28Z"/>
              <g>
                <path class="cls-2" d="M19.5,18.06c0,.13-.03.5-.05.6-.06.15-.31-.38-.42-.63-.33-.72-.59-1.5-.84-2.25.08-.07.34-.27.37-.33.69.38.76,1.89.79,2.63l.14-.02Z"/>
                <path class="cls-17" d="M19.45,18.67c-.02.09.04.2-.07.19-.42-.25-1.59-2.52-1.56-2.76.01-.08.31-.24.37-.3.24.76.51,1.53.84,2.25.11.25.36.78.42.63Z"/>
                <path class="cls-31" d="M19.54,17.41l-.09.05c0-.06-.01-.42.02-.42.02,0,.02.2.07.37Z"/>
              </g>
            </g>
          </g>
          <g>
            <path class="cls-16" d="M15.27,20.48c-.19.21-.33.46-.51.65-.26.29-.66.57-.7.6-.77.35-2.05.31-2.09-.79-.03-.81,1.93-2.9,2.46-3.62.77.12,1.56.18,2.32.35-.36,1.01-.9,1.92-1.49,2.81Z"/>
            <g>
              <path class="cls-2" d="M14.43,17.32c-.53.73-2.49,2.82-2.46,3.62-.53-.44-.56-1.67-.56-2.39l-.14.02s0-.09,0-.14c.18-.07,1-1.44,1.18-1.49.15-.03,1.67.32,1.97.37Z"/>
              <path class="cls-2" d="M11.97,20.94c.04,1.1,1.32,1.14,2.09.79-.53.53-1.76,1.8-2.37,2.09-.57-.61-1.07-1.37-1.21-2.21-.11-.64.09-1.37-.09-1.37.14-.28.86-1.58.88-1.67l.14-.02c0,.72.02,1.95.56,2.39Z"/>
              <path class="cls-10" d="M11.69,23.83c-1.28.61-2.14-.34-2.18-1.14-.04-.74.55-1.77.88-2.44.18,0-.01.73.09,1.37.14.83.64,1.6,1.21,2.21Z"/>
            </g>
          </g>
          <g>
            <path class="cls-2" d="M11.18,18.48c-.37.65-.83,1.26-1.21,1.91-1.3.21-1.74-.44-1.95-1.63.01-.04.02-.14.05-.23.21-.61,1.29-2.32,1.46-2.37.17-.05,2.17.61,2.53.72-.31.52-.58,1.08-.88,1.6Z"/>
            <path class="cls-10" d="M9.97,20.39c-.13.22-.77,1.63-.86,1.63-1.09-1.09-1.52-1.69-1.09-3.25.21,1.18.65,1.83,1.95,1.63Z"/>
          </g>
          <g>
            <path class="cls-20" d="M6.62,11.56c.05.14.06.4,0,.53-.03.07-1.08,1-1.21,1.09-.23.16-.53.25-.79.37l-1.16-.51c-.15-.48-.51-.64.37-1.25.34-.24.84-.28-.26-.23-.22-.97,2.24-.61,3.04,0Z"/>
            <path class="cls-20" d="M6.44,14.72c-.46,1.34-1.2,1.32-1.49.84-.17-.29.01-.64,0-.67-.04-.1-.73-.08-.84-.7.3-.18,1.17-.88,1.3-.95,1.12-.61,1.49.14,1.02,1.49Z"/>
            <path class="cls-20" d="M6.39,11.23c-1.14-.28-2.87-.46-2.79-.88,1.07-.48,2.44.05,3.39.63-.15.57-.26.34-.6.26Z"/>
            <path class="cls-2" d="M4.63,13.56c-.16.07-.66.42-.81.37-.08-.02-.31-.75-.35-.88l1.16.51Z"/>
          </g>
          <g>
            <path class="cls-22" d="M8.3,16.3c-.11.65-.41,1.05-.74,1.58-.1-.32-.76-.52-.93-1.28-.14-.67.07-.92.14-1.46.08-.06.09-.09.09-.09.62-.28,1.36.16,1.44,1.25Z"/>
            <path class="cls-2" d="M7.55,17.88c-.07.11-.13.08-.19.19-1.33,0-1.42-2.33-.6-2.93-.07.54-.28.8-.14,1.46.16.76.83.96.93,1.28Z"/>
          </g>
          <g>
            <path class="cls-2" d="M17.5,18.39c.06.2.17.7.23.98.33,1.4.51,2.83.84,4.23.05.23.13.47.19.7l-.19-.02c.14,1.27.43,2.53.7,3.79.18.88.75,2.98.79,3.53.02.19.05.13.05.14-.01.33-.27.57-.6.56-.42-.84-.85-1.78-1.35-2.51-.23-.82-.46-1.67-.6-2.51-.53-3.02-.08-3.74.05-6.58l-.14.07c.05-.45.11-1.18.09-1.6,0-.19-.23-.76-.05-.77Z"/>
            <path class="cls-2" d="M17.5,18.39c-.18,0,.04.57.05.77.02.43-.05,1.15-.09,1.6-.13,1.22-.56,3.21-1.6,3.95-.94-.3-1.69-1.85-1.56-2.83.17-.22.32-.5.46-.74.18-.19.32-.44.51-.65.71-.78,1.29-1.69,2.11-2.37.07.01.1.22.12.28Z"/>
            <path class="cls-10" d="M18.75,24.29c.41,1.65.97,3.24,1.58,4.83.03.17.11.34.14.51.05.23.1.47.14.7.03.15-.02.27.05.51v.79c-.02.13-.03.25-.05.37-.19-.06-.29-.45-.51-.28,0,0-.03.05-.05-.14.15,0,.28.08.28-.12,0-.19-.93-3.03-1-3.6l-.07.19c-.26-1.25-.55-2.52-.7-3.79l.19.02Z"/>
            <path class="cls-4" d="M19.5,32.28c-.67-.02-1.04-1.37-1.21-1.91-.06-.2-.08-.41-.14-.6.5.73.93,1.67,1.35,2.51Z"/>
            <path class="cls-4" d="M20.05,31.59c-.04-.55-.61-2.65-.79-3.53l.07-.19c.07.58,1,3.41,1,3.6,0,.2-.13.12-.28.12Z"/>
            <g>
              <path class="cls-4" d="M17.54,27.26c-.07.95.52,2.27.7,3.11.15.72.34,1.95-.86,1.49-1.2-.46-1.17-2.66-1.23-3.69-.28.68.64,2.47-.72,2.11-.94-.25-1.08-1.3-1.14-1.37-.05-.05-.35.03-.6-.37-.19-.29-.21-.8-.23-.84-.1-.17-1.25-.1-1.16-2.28.07-1.71,1.06-2.34,2-3.55-.13.99.62,2.53,1.56,2.83,1.04-.74,1.47-2.73,1.6-3.95l.14-.07c-.12,2.83-.58,3.56-.05,6.58Z"/>
              <path class="cls-26" d="M18.15,29.77c.06.2.08.41.14.6h-.05c-.17-.84-.76-2.17-.7-3.11.15.84.37,1.69.6,2.51Z"/>
              <path class="cls-19" d="M16.08,27.4c.12.87-.06.9-.02.02l.02-.02Z"/>
            </g>
          </g>
        </g>
      </g>
    </g>
  </g>
</svg>