<?xml version="1.0" encoding="UTF-8"?>
<svg id="Layer_2" data-name="Layer 2" xmlns="http://www.w3.org/2000/svg" xmlns:xlink="http://www.w3.org/1999/xlink" viewBox="0 0 67.99 79.57">
  <defs>
    <style>
      .cls-1 {
        fill: #46363b;
      }

      .cls-1, .cls-2, .cls-3, .cls-4, .cls-5, .cls-6, .cls-7, .cls-8, .cls-9, .cls-10, .cls-11, .cls-12, .cls-13, .cls-14, .cls-15, .cls-16, .cls-17, .cls-18, .cls-19, .cls-20, .cls-21, .cls-22, .cls-23, .cls-24, .cls-25, .cls-26, .cls-27, .cls-28, .cls-29, .cls-30, .cls-31, .cls-32, .cls-33, .cls-34, .cls-35, .cls-36, .cls-37, .cls-38, .cls-39, .cls-40, .cls-41, .cls-42, .cls-43, .cls-44, .cls-45, .cls-46, .cls-47, .cls-48, .cls-49, .cls-50 {
        stroke-width: 0px;
      }

      .cls-2 {
        fill: #8f8075;
      }

      .cls-3 {
        fill: #e7c3a9;
      }

      .cls-4 {
        fill: #34191c;
      }

      .cls-5 {
        fill: #b49f91;
      }

      .cls-6 {
        fill: #e3b5a0;
      }

      .cls-7 {
        fill: #ffe5be;
      }

      .cls-8 {
        fill: #7b2231;
      }

      .cls-9 {
        fill: #614b4f;
      }

      .cls-10 {
        fill: #5c2323;
      }

      .cls-11 {
        fill: #ff924f;
      }

      .cls-12 {
        fill: url(#linear-gradient);
      }

      .cls-13 {
        fill: #d4314b;
      }

      .cls-14 {
        fill: #a09c97;
      }

      .cls-15 {
        fill: #ff6e87;
      }

      .cls-16 {
        fill: #4b1724;
      }

      .cls-17 {
        fill: #dbcfb8;
      }

      .cls-18 {
        fill: #fdcecd;
      }

      .cls-19 {
        fill: #ee2d4d;
      }

      .cls-20 {
        fill: #b72b49;
      }

      .cls-21 {
        fill: #e72c4f;
      }

      .cls-22 {
        fill: #ff4d5c;
      }

      .cls-23 {
        fill: #ffd2d8;
      }

      .cls-24 {
        fill: #fdf2ed;
      }

      .cls-25 {
        fill: #a78884;
      }

      .cls-26 {
        fill: #f4dbaa;
      }

      .cls-27 {
        fill: #b6aea6;
      }

      .cls-28 {
        fill: #fc967e;
      }

      .cls-29 {
        fill: #c95453;
      }

      .cls-30 {
        fill: #763d3a;
      }

      .cls-31 {
        fill: #ff929d;
      }

      .cls-32 {
        fill: #c0a194;
      }

      .cls-33 {
        fill: #ffe8c8;
      }

      .cls-34 {
        fill: #d5c7c0;
      }

      .cls-35 {
        fill: #a82c32;
      }

      .cls-36 {
        fill: #faefe1;
      }

      .cls-37 {
        fill: #c0b5a7;
      }

      .cls-38 {
        fill: #492728;
      }

      .cls-39 {
        fill: #80646b;
      }

      .cls-40 {
        fill: #e9e6df;
      }

      .cls-41 {
        fill: #754f54;
      }

      .cls-42 {
        fill: #867e7b;
      }

      .cls-43 {
        fill: #d2b791;
      }

      .cls-44 {
        fill: #ff8799;
      }

      .cls-45 {
        fill: #b0816a;
      }

      .cls-46 {
        fill: #852641;
      }

      .cls-47 {
        fill: #f9aba8;
      }

      .cls-48 {
        fill: #ffb3c1;
      }

      .cls-49 {
        fill: #ee5684;
      }

      .cls-50 {
        fill: #f7f4ed;
      }
    </style>
    <linearGradient id="linear-gradient" x1="38.27" y1="23.9" x2="34.84" y2="24.2" gradientUnits="userSpaceOnUse">
      <stop offset="0" stop-color="#f7f1ee"/>
      <stop offset="1" stop-color="#f8eade"/>
    </linearGradient>
  </defs>
  <g id="Layer_1-2" data-name="Layer 1">
    <g>
      <g>
        <path class="cls-20" d="M67.68,60.58c-.16,3.56-2.59,6.39-5.21,8.55-2.28,1.88-4.89,3.35-7.61,4.48-5.37,2.24-10.4,3-16.16,3.23-4.16.17-8.41.1-12.57-.21-1.12-.08-2.27-.49-3.39-.21-2.53-.45-6.85-1.4-9.18-2.29-.21-.08-.85-.32-.63-.52,1.41.28,2.95.35,4.38.31,0,.07-.03.19.05.21.97.23,15.14-.49,17-.73,1.23-.16,3.2-.66,4.54-.94,1.8-.38,3.68-.6,5.37-1.36.37-.17.39-.51.42-.52.15-.05.45.37,2.45-.31,2.08-.71,1.9-1.15,2.24-1.25.25-.07,1.41.02,2.19-.31.78-.33,1-1,1.25-1.15.24-.14,3.43-.77,4.85-2.4.73-.2.96-.26,1.46-.83.39-.45.65-.82.63-1.46,1.61-1.09.95-2.83,1.04-3.6.02-.13.39-.66.42-.94.03-.3-.17-.75-.1-1.46.05-.52.25-1.08.31-1.62.02-.14.03-.32-.1-.31.45-1.64-.79-3.2-.26-3.34,3.49,1.96,6.81,4.57,6.62,8.97Z"/>
        <path class="cls-34" d="M67.99,61.21c-.72,3.86-1.9,5.54-4.8,8.03-.36-.18-.98.94-.73-.1,2.62-2.16,5.06-4.99,5.21-8.55.12.2.21.41.31.63Z"/>
        <path class="cls-4" d="M7.83,51.1c0,.41.25,1.45.21,1.82-.06.51-.49.69-.42,1.62.05.6.31.89.31.94.3,2.19-.11,2.49-.1,4.07.01,3.52,1.4,4.95,4.17,6.78,2.67,1.76,2.37,1.13,2.66,1.25.07.03.62.77,1.25.94.28.08,1.04-.08,1.25,0,.26.09.32.64.36.68,1.19,1.01,2.82.13,2.97.16.1.02.89.98,1.04,1.04.71.29,1.19-.01,1.25,0,.28.06,2.44,3.12,4.85.1.43.45,1.59.92,2.19,1.25-1.2.41-2.06,1.06-3.6,1.36-.86.17-7.86.81-8.92.83-1.43.04-2.97-.03-4.38-.31-5.17-1.03-12.84-7.96-12.3-13.61.06-.64.75-1.8.31-1.82.36-.81.74-1.57,1.25-2.29,1.45-2.02,3.54-3.51,5.63-4.8Z"/>
        <path class="cls-16" d="M22.74,76.43c4.75.84,8.83,1.2,13.66,1.15.13.66-1.01.04-1.77.47.42.61.85-.21.57,1.3,1.45.23,3.46-.49,4.01,0-1.38.12-2.57.18-3.96.21-3.95.07-7.69-.25-11.57-.94-2.3-.41-4.74-.99-6.99-1.67-.03-.5-3.08-.95-3.23-1.51-.06-.23.39-.66.1-1.3,2.32.9,6.65,1.85,9.18,2.29Z"/>
        <path class="cls-16" d="M12.93,73.62c-.23.2.42.44.63.52.29.65-.17,1.07-.1,1.3.15.56,3.2,1.01,3.23,1.51-6.28-1.9-12.41-5.35-15.95-11.05h-.1c-.05-.56-.45-1.44-.52-2.09-.18-1.6-.18-3.15.31-4.69.03-.08.41-.69.52-.94.44.03-.25,1.18-.31,1.82-.53,5.65,7.13,12.57,12.3,13.61Z"/>
        <path class="cls-10" d="M31.91,71.22c.21.05.51.55.68.63,1.41.67,3.87-.68,4.17-.63.53.09.19.93,1.62.83l.52.42c-1.34.28-3.31.78-4.54.94-1.86.24-16.03.96-17,.73-.08-.02-.05-.14-.05-.21,1.06-.03,8.06-.67,8.92-.83,1.54-.3,2.4-.95,3.6-1.36.37-.13,1.82-.58,2.09-.52Z"/>
        <path class="cls-32" d="M55.27,74.04c-5.43,2.3-11.33,3.35-17.21,3.55.02-.49.79.19.63-.73,5.77-.23,10.8-.99,16.16-3.23l.42.42Z"/>
        <path class="cls-25" d="M38.69,76.85c.16.92-.6.24-.63.73-.55.02-1.11,0-1.67,0-4.83.05-8.91-.31-13.66-1.15,1.12-.28,2.27.12,3.39.21,4.16.31,8.4.37,12.57.21Z"/>
        <path class="cls-18" d="M63.2,69.24c-2.38,2.05-5.03,3.57-7.93,4.8l-.42-.42c2.72-1.14,5.33-2.6,7.61-4.48-.25,1.04.37-.08.73.1Z"/>
        <path class="cls-16" d="M45.36,69.97l1.77.31c-2,.68-2.3.26-2.45.31-.03.01-.05.36-.42.52-1.69.75-3.57.98-5.37,1.36l-.52-.42c.82-.06,2.13-.63,2.24-.63.36.01.45.51,1.15.31.22-.06.47-.4.52-.42,1.18-.37,1.38-.28,2.45-1.04.06-.04.58-.28.63-.31Z"/>
      </g>
      <g>
        <path class="cls-50" d="M61.94,37.23c-.21.77-1.57,2.37-2.19,2.92-.87.77-5.25,3.46-6.36,3.96-.04.02-.24-.05-.31.21-1.96.54-3.84,1.23-5.84,1.67-1.97.43-5.64,1.05-7.56,1.04-.08,0-.03-.21-.1-.21-5.53-.06-11.16-.44-16.48-2.09-1-.31-5.77-1.93-4.95-2.61,1.09.06,2.1-.03,3.18-.31.57-.15,2.85-1.03,2.45-1.25.89-.17,2.92-.82,3.86-1.15l-.16.21c.72.21,2-.37,2.4-.31.16.02,1.83,1.3,2.71,1.67,3.39,1.43,5.01.14,5.94,0,3.87-.59,7.48,2.85,11.16,2.29.77-.12,7.26-2.77,8.76-3.44l-.21-.21-6.15,1.15-.05-.42c.85-.31,1.26-.82,1.51-.94.21-.09.88-.15,1.2-.31,1.48-.74,2.33-1.7,2.82-3.34.2,1.82,2.26.64,1.98-.36-1.16-.81.59-.36.1-1.93.27-.24.59-.33.31-.73-.21-.79-1.04-.59-1.09-.63-.14-.09-1.82-2.14-2.14-2.5,0,0,.04-.04-.1-.21-.45-.52-.91-1.03-1.36-1.56.08-.45.13-.9.1-1.36.23,1.26,2.27,2.04,3.28,2.92,2.01,1.75,4.02,5.07,3.28,7.82Z"/>
        <path class="cls-46" d="M36.29,47.34c0,.17.01.35,0,.52-.1,1.17-1.14,3.01-1.88,3.96-.25-.23-1.33,1.51-1.93,1.67-1.61.41-2.04-1.21-3.08-2.55-.09-.11-.4-.14-.42-.16-.05-.06-.1-.1-.1-.1-.54-.75-1.64-3.13-1.82-3.13-.18,0-.14.4-.16.42-1.05.92-4.41,2.75-5.01,3.34.02-.37-.11-.14-.47.21-.44.03-2.36-5.11-2.35-2.71-.13-.01-.1.1-.1.1-.47.35.2,1.61-.63,1.41.3-1.07-1.34-5.57-1.62-5.68-.5-.04-.19.24-.36.42-1.82,1.87-3.2,2.84-3.34,3.02-.42-.74-1.63-4.34-1.77-4.54-.26-.38-.26.15-.63-.05-.47-1.87-.19,1.22-.94,2.03-1.06,1.14-.97-3.23-1.2-3.7.01.75-.66,2.37-.68,2.5-.26.04-.5.2-.73.31-.18-.26-.08-.55-.1-.83-.03-.32-.08-.62-.1-.94-.23-2.9-.62-7.22.42-9.91-.47,2-.18,3.36.94,5.06,4.47,6.75,20.57,9.36,28.05,9.33Z"/>
        <path class="cls-36" d="M13.25,27.84c.12.26.08.33.1.42.19.73.29,2.81.21,3.65-.22-.28-.44-.52-.63-.83-.18-.54-.65-1.14-.63-1.77l-.16-.21c-.9.5-2.81,2.09-3.08,3.02,0,.03,0,.07,0,.1l-.21-.16c-3.02,5.92,4.37,9.79,9.28,10.06-.81.67,3.95,2.3,4.95,2.61,5.31,1.64,10.94,2.03,16.48,2.09.08,0,.03.21.1.21,1.92,0,5.59-.61,7.56-1.04-1.01.36-2.08.56-3.13.73-.29.05-.2.1-.21.1-1.86.28-5.7.52-7.61.52-7.48.02-23.58-2.58-28.05-9.33-1.12-1.7-1.41-3.05-.94-5.06.8-2.08,4.12-5.43,4.8-5.74.54-.24.94.18,1.15.63Z"/>
        <path class="cls-44" d="M61.74,44.21c-.08.27-1.02,1.31-1.15,1.2l-.94-3.6c.06-.54.04-1.12.1-1.67.62-.55,1.98-2.15,2.19-2.92.24.9-.11,6.65-.21,6.99Z"/>
        <path class="cls-50" d="M30.45,26.38c-.06-.95-.12-3.11-1.2-3.55-.62-.25-1-.28-.78.21-.18-.05-.6-.31-.73-.42l-.26-.63c.1-.17,3.03-1.57,3.49-1.88-.14.79.18,5.95,0,6.2-.08.11-.38.03-.52.05Z"/>
        <path class="cls-44" d="M59.75,40.15c-.07.55-.04,1.13-.1,1.67-.16,1.36-.78,4.38-1.56,5.42-.1.13-.39.46-.52.52-.17-.49-2.91-2.47-3.13-2.4-.1.03-.2.09-.21.21-.05-.15-.65-1.24-.83-1.46,1.11-.5,5.49-3.19,6.36-3.96Z"/>
        <path class="cls-40" d="M37.02,39.94c1.08-.39.54-.3.83-1.36,3.33,1.58,6.05,2.47,9.8,2.4,1.15-.02,3.33-.24,4.38-.63l.05.42,6.15-1.15.21.21c-1.5.67-7.99,3.32-8.76,3.44-3.68.56-7.29-2.88-11.16-2.29-.93.14-2.56,1.43-5.94,0-.88-.37-2.55-1.64-2.71-1.67-.4-.06-1.68.52-2.4.31l.16-.21c1.24-.42,2.45-.95,3.65-1.46,0,.29-.02,1.14,0,1.2.17.45,3.77,1.49,5.74.78Z"/>
        <path class="cls-44" d="M53.08,44.32c-.36,1.71-.59,3.43-1.25,5.06-.31.77-1.03,1.66-1.15,2.35-.01,0-.02.12-.21.21-2.5,1.17-5.33-3.51-6.36-5.21,1.05-.17,2.12-.37,3.13-.73,2-.44,3.87-1.13,5.84-1.67Z"/>
        <path class="cls-27" d="M9.08,32.22c-.15.83,1.07,1.28,1.15,1.62.1.41-.95,1.92,1.2,3.28.28.18,1.05.25,1.15.31.08.05.52.92,1.36,1.36,1,.52,1.59.38,1.67.42.13.06.59.64.83.73,2.35.87,4.89,1.1,7.35.63.4.23-1.88,1.1-2.45,1.25-1.08.28-2.09.37-3.18.31-4.92-.28-12.3-4.14-9.28-10.06l.21.16Z"/>
        <path class="cls-8" d="M53.39,44.11c.18.22.78,1.31.83,1.46.19.54.67,2.15.1,2.24-2.01-4.24-.22-1.97-2.5,2.29-.15.28-.95,1.45-1.15,1.62.11-.69.83-1.57,1.15-2.35.66-1.63.89-3.35,1.25-5.06.07-.26.27-.19.31-.21Z"/>
        <path class="cls-21" d="M43.9,46.82l.1,1.98c-.64,1.99-2.05,5.18-4.59,4.8-.02-.09-.87-1.02-1.15-1.51-.59-1.04-1.15-2.3-1.77-3.18-.07-.59.16-1.13-.21-1.04.01-.17,0-.35,0-.52,1.91,0,5.75-.24,7.61-.52Z"/>
        <path class="cls-8" d="M34.42,51.83c-.55.72-1.18,1.31-1.88,1.88-.22.02-1.16-.07-1.25.05-.22.3-.1,6.51-.1,7.46,0,.66,0,1.32,0,1.98.03,1.88.11,3.76.31,5.63-.25-2.33-2.04-6.67-2.09-7.04-.15-1.13,1.57-7.18-.42-11,.01.02.33.04.42.16,1.03,1.35,1.47,2.97,3.08,2.55.6-.15,1.68-1.9,1.93-1.67Z"/>
        <path class="cls-8" d="M13.04,48.07c-.43.58-.66,5.18-.83,6.41-.22,1.55-.87,3.43-.94,4.95l-.1-.1c0-.17,0-.35,0-.52.05-6.74,1.34-7.92-.52-15.33.37.2.36-.33.63.05.14.2,1.35,3.8,1.77,4.54Z"/>
        <path class="cls-8" d="M21.9,51.3c-.12.12-.37.26-.42.36-.16.38-.65,6.98-1.04,8.24-.32.18-.17-.21-.21-.36-.39-1.4.08-5.45-.1-7.25-.12-1.18-1.04-3.08-1.04-3.49-.01-2.4,1.91,2.74,2.35,2.71.36-.35.49-.58.47-.21Z"/>
        <path class="cls-46" d="M28.89,50.68c.03,1.08-.58,2.73-1.04,3.81-.18-2.2-.23-4.4-.94-6.52.02-.01-.02-.41.16-.42.18,0,1.29,2.38,1.82,3.13Z"/>
        <path class="cls-50" d="M36.5,48.91c.04.37.14.78.21,1.15-.64,1.36-2.28,3.48-3.81,3.75-.29.05-.35-.11-.36-.1.7-.57,1.33-1.16,1.88-1.88.73-.95,1.78-2.79,1.88-3.96.37-.08.14.45.21,1.04Z"/>
        <path class="cls-8" d="M18.98,48.91c.05.28-.17,3.57-.42,3.39l-2.19-7.25c.17-.18-.13-.45.36-.42.28.11,1.92,4.61,1.62,5.68.83.2.15-1.06.63-1.41Z"/>
        <path class="cls-38" d="M31.18,35.56l.1.1c-.1,3.11-.78,3.27-.63.05l.31-.16h.21Z"/>
        <path class="cls-35" d="M44.11,46.72c1.03,1.7,3.86,6.38,6.36,5.21.17,1.14-.27,5.21-.1,5.68.03.08.14.05.21.05-.15.17-.14.06-.21.31-.03.12.03.35,0,.52-.02.12,0,.29,0,.42,0,.03-.23.03,0,.63h-.1c0-.08-.26-.37-.31-1.51-.03-.74.12-5.55-.1-5.74-.39-.33-1.45.98-5.11-3.6-.08-.1-.38-.73-.47-.73-.21.14-.13.45-.26.83l-.1-1.98s-.08-.06.21-.1Z"/>
        <g>
          <path class="cls-12" d="M40.57,21.17c-.01.09.12.11.1.21-.48.27-2.61,1.69-2.71,2.03-.06.19.03.9,0,1.3-.18,2.53-.02,5.08-.1,7.61-.02.62.06,1.93,0,2.19,0,.02-.04-.01-.21.31-.03.06-.71.8-.83.94-1.57,1.73-3.12,2.57-2.82-.73.14-.13.92-.82.94-.89.16-.52-.04-9.67-.1-10.9-.1-1.77-.35-3.53-.94-5.21.39-.27.78-.63,1.15-.94.82-.69.8-.56,1.36-1.46.72-1.16,1.13-.92-.26-2.4-.09-.1-1.14-.45-1.62-2.09.9.08,2.59,1.15,2.92,2.03.53,1.42-.03,6.29.21,6.88.06.15,2.76,1.08,2.92,1.09Z"/>
          <path class="cls-26" d="M34.52,11.16c.47,1.64,1.52,1.99,1.62,2.09,1.39,1.48.98,1.23.26,2.4-1.17.72-2.63.79-3.91.31-.81-.3-1.07-.98-1.3-.73,0-.14,0-.28,0-.42.46-.29.56-.77.99-1.15.35-.3,1.29-.62,1.41-1.04.73.34.69-.7.73-1.46.07,0,.14,0,.21,0Z"/>
          <path class="cls-7" d="M33.58,11.26c0,.39.04,1.21,0,1.36-.12.42-1.06.74-1.41,1.04-.43.37-.53.86-.99,1.15.02-.36-.14-.52-.1-.78.16-1.2,1.36-2.4,2.5-2.76Z"/>
          <path class="cls-41" d="M34.42,10.64c.08.28-.1.46-.1.52-.04.76,0,1.8-.73,1.46.04-.15,0-.97,0-1.36v-.42c.55.41.74.32.63-.42,0,.01.15.01.21.21Z"/>
          <g>
            <path class="cls-9" d="M33.37,17c-.22.03.05.54.1,1.15.33,3.66.19,10.95.21,15.12,0,.69-.11,1.41-.1,2.09.02,2.43-.5,4.51,2.76,4.17l.36-.31c.24.58.81.1.31.73-1.97.71-5.56-.33-5.74-.78-.02-.06,0-.91,0-1.2,0-.57.3-1.65,0-2.29l-.1-.1c.17-.81.13-1.69.1-2.5,0-.03,0-.07,0-.1-.12-4.29-.25-8.64-.21-12.93.01-1.55.05-3.14.1-4.69.57.69,1.28,1.42,2.19,1.67Z"/>
            <path class="cls-1" d="M36.4,15.64c-.56.9-.53.77-1.36,1.46-.55-.03-1.13.04-1.67-.1-.91-.24-1.62-.98-2.19-1.67,0-.03,0-.07,0-.1.24-.25.49.43,1.3.73,1.28.47,2.74.41,3.91-.31Z"/>
            <path class="cls-2" d="M33.89,18.04c.59,1.69.84,3.44.94,5.21-.45.22-.09.64-.1.68-.01.05-.13-.25-.31.94-.01.08-.2.02-.21.1-.19,1.54.18,5.36.1,6.26,0,.1-.3,0-.31.1-.08.65.17,1.84-.31,1.93-.01-4.17.12-11.46-.21-15.12.13-.03.3-.02.42-.1Z"/>
            <path class="cls-2" d="M34,35.04c-.3,3.3,1.25,2.46,2.82.73l-.1,3.44-.36.31c-3.26.33-2.75-1.74-2.76-4.17.15-.04.31-.22.42-.31Z"/>
            <path class="cls-2" d="M34,35.04c-.1.1-.27.28-.42.31,0-.67.11-1.39.1-2.09.48-.09.24-1.28.31-1.93.01-.1.3,0,.31-.1.08-.9-.29-4.71-.1-6.26.01-.08.2-.02.21-.1.18-1.19.3-.89.31-.94,0-.04-.35-.46.1-.68.07,1.23.26,10.38.1,10.9-.02.06-.8.76-.94.89Z"/>
            <path class="cls-9" d="M37.86,38.58c-.29,1.05.25.97-.83,1.36.5-.63-.08-.15-.31-.73l.1-3.44c.12-.14.81-.88.83-.94.12.84-.24,3.3.21,3.75Z"/>
            <path class="cls-39" d="M35.04,17.1c-.37.31-.76.66-1.15.94-.12.08-.28.07-.42.1-.05-.61-.32-1.11-.1-1.15.54.14,1.12.08,1.67.1Z"/>
            <path class="cls-24" d="M31.18,35.56h-.21l.1-2.29s.05-.19.21-.21c.02.82.07,1.7-.1,2.5Z"/>
          </g>
          <g>
            <path class="cls-30" d="M35.56,6.57c.04.85.12,2.39-.31,2.61,0-.09-.19-.25-.21-.52-.1-1.33-.13-4.67-.94-5.63.02-.27-.04-.25-.21-.05-.48,2.26-1.76,5.06-.21,7.04.31.39.4.27.52.42.12.74-.08.83-.63.42-1.54-1.16-1.42-3.75-1.04-5.42.28-1.23.87-2.36,1.51-3.44,1.11,1.6,1.42,2.68,1.51,4.59Z"/>
            <path class="cls-50" d="M34.1,3.02c.17,1.06.33,4.89.42,5.16.05.15.3.51.52.47.02.27.2.43.21.52.03.44.2.65-.1,1.04.17-.66-.88-2.57-1.46-1.46v1.25c-1.55-1.98-.27-4.78.21-7.04.17-.2.22-.22.21.05Z"/>
            <path class="cls-50" d="M35.35,2.5c.04.1.07.3.1.42.08.28.28.72.31.99.06.53.08,2.75-.21,2.66-.09-1.91-.4-2.99-1.51-4.59-.64,1.08-1.23,2.21-1.51,3.44-.52-.84.08-1.84.31-2.66.04-.14-.13-.18-.1-.26.04-.14.93-2.02,1.2-2.5.23.8,1.14,1.83,1.41,2.5Z"/>
            <path class="cls-45" d="M35.15,10.22c-.24.31-.41.27-.73.42-.05-.19-.2-.2-.21-.21-.12-.14-.22-.03-.52-.42v-1.25c.37-.14,1.09,1.31,1.04,1.41-.05.1-1.01.25.42.05Z"/>
            <path class="cls-17" d="M35.04,8.65c-.22.04-.47-.31-.52-.47-.09-.27-.25-4.1-.42-5.16.81.97.84,4.3.94,5.63Z"/>
            <path class="cls-11" d="M35.15,10.22c-1.42.19-.47.05-.42-.05.05-.1-.67-1.55-1.04-1.41.58-1.11,1.63.8,1.46,1.46Z"/>
          </g>
        </g>
        <path class="cls-34" d="M57.67,65.17c-1.42,1.63-4.61,2.26-4.85,2.4-.25.14-.47.82-1.25,1.15-.78.33-1.94.24-2.19.31-.34.1-.16.55-2.24,1.25l-1.77-.31s-.14-.26.47-.73c2.41-1.86,4.77-1.37,5.94-1.98.45-.23,1.15-1.4,1.36-1.46.18-.05.52.87,3.34-1.15,1.11.41,1.75-.11,1.2.52Z"/>
        <path class="cls-36" d="M59.75,62.88c-.02-.48-.84-1.42-.94-1.98,1.19-1.57.44-3.19,2.61-5.63-.06.53-.27,1.1-.31,1.62-.06.71.14,1.16.1,1.46-.03.28-.4.81-.42.94-.09.77.57,2.51-1.04,3.6Z"/>
        <path class="cls-34" d="M59.75,62.88c.02.64-.24,1.01-.63,1.46.23-1.12-.12-2.04-.83-2.92.09-.08.5-.49.52-.52.1.56.92,1.5.94,1.98Z"/>
        <path class="cls-7" d="M50.27,60.06c.07,1.82.1,3.71.1,5.53,0,.03-.18.07-.1.63-1.59.04-.56-1.79-1.15-4.28.31-.3.36-.51.31-.94.53.08.41-.59.42-1.2l.42.26Z"/>
        <path class="cls-13" d="M55.06,63.3c-.04.96-.99,2.02-1.36.21-.06-.29-.05-.82-.1-1.15.28-.34.47-.92.99-.83.27.45.49,1.28.47,1.77Z"/>
        <path class="cls-42" d="M27.64,70.07c-.16.19-.32.08,0,.42-2.41,3.01-4.57-.05-4.85-.1-.06-.01-.54.29-1.25,0-.16-.06-.94-1.03-1.04-1.04-.15-.03-1.78.86-2.97-.16-.05-.04-.11-.59-.36-.68-.21-.08-.97.08-1.25,0-.63-.17-1.18-.91-1.25-.94-.29-.13.01.51-2.66-1.25-.11-.56.74-.87,1.04-1.36,1.02.74,1.19.92,1.82.1.76,2.98,2.43,1.73,3.55,1.98.19.04,1.2.87,1.67,1.04,1.81.68,3.77.35,3.96.42.19.07.89,1.12,3.6,1.56Z"/>
        <path class="cls-14" d="M7.93,59.65c.26.94,1.5,1.92,2.19,2.61.38.38.75.69,1.15,1.04.59.53,1.14,1.21,1.77,1.67-.31.48-1.16.79-1.04,1.36-2.78-1.83-4.16-3.25-4.17-6.78.12-.01.09.05.1.1Z"/>
        <path class="cls-14" d="M33.89,70.18c-.14.55-1.6-.03-1.98,1.04-.26-.06-1.72.4-2.09.52-.6-.33-1.76-.8-2.19-1.25-.32-.34-.16-.23,0-.42,1.78.29,4.42.17,6.26.1Z"/>
        <g>
          <path class="cls-7" d="M10.64,43.48c1.87,7.41.57,8.59.52,15.33-.32.06-.15-.25-.26-.31-.01,0-.25.1-.26.1-.7.08-1.97.76-2.71,1.04-.01-.05.01-.12-.1-.1,0-1.58.4-1.87.1-4.07.32-.75.81-2.35-.31-.94-.07-.93.36-1.1.42-1.62.04-.38-.21-1.41-.21-1.82.02-1.72-.05-6.38,0-6.78.02-.13.69-1.75.68-2.5.23.47.14,4.85,1.2,3.7.75-.81.47-3.91.94-2.03Z"/>
          <path class="cls-21" d="M7.93,55.48s-.27-.34-.31-.94c1.13-1.42.64.19.31.94Z"/>
        </g>
        <path class="cls-46" d="M10.64,58.6c-.12,1.56.15,4.22-.52,3.65-.69-.68-1.93-1.67-2.19-2.61.74-.29,2.01-.97,2.71-1.04Z"/>
        <path class="cls-50" d="M12.73,63.4c1.67,2.03,1.67,1.99,2.61.31.16.11.08.26.31.21-.06,1.79.62,3.65,2.61,2.19.81.39,1.43.93,2.29,1.25.75.27,1.05.39,1.88.42.76.02,1.99-.25,2.29-.21.07,0,.17-.01.21,0,.49.17,1.12,2.72,3.23.94,2.6,2.63,1.94.65,3.34.52.2-.02.37.27,1.04.21.14-.01.31-.09.83-.1.47-.01.28-.21.36-.21.49,0,.67.12,1.3.1.03,0,.1.1.52.1,3.6.02,3.8-1.21,4.59.1-.28-.05-.21.15-.21.42-2.01.32-4.02.45-6.05.52-1.84.06-4.47.19-6.26-.1-2.71-.44-3.41-1.5-3.6-1.56-.19-.07-2.15.27-3.96-.42-.46-.18-1.48-1-1.67-1.04-1.11-.26-2.78,1-3.55-1.98-.63.82-.81.64-1.82-.1-.63-.46-1.18-1.14-1.77-1.67.23-.21,1.1.08,1.46.1Z"/>
        <path class="cls-8" d="M19.82,59.44c-.02,1.12-.21,2.24-.42,3.34-.01.06.01.14,0,.21-.05.23-.1.68-.31.73-.3-.74-.63-1.46-.94-2.19-.51-1.21-1.14-1.5.89-2.09,1.11-.32.7-.03.78,0Z"/>
        <g>
          <path class="cls-8" d="M26.28,63.92c-.14.23-.21.48-.31.73-.22-.06-.67,1.16-.73,1.41-.14.6.39,1.04-.31,1.51-.04-.01-.13,0-.21,0-.06-.8-1.27-.08-2.19-.1.85-1.48,1.94-2.82,2.97-4.17.24-.04.64.52.78.63Z"/>
          <path class="cls-16" d="M25.97,64.65c-.72,1.72-.9,3.5,1.36,1.98.4.41,1.16,1.26.83,1.88-2.12,1.78-2.75-.77-3.23-.94.7-.47.17-.91.31-1.51.06-.25.51-1.47.73-1.41Z"/>
          <path class="cls-11" d="M24.72,67.57c-.31-.04-1.54.23-2.29.21-.21-.26.09-.29.1-.31.92.03,2.13-.7,2.19.1Z"/>
        </g>
        <g>
          <path class="cls-6" d="M11.16,58.81c0,.17,0,.35,0,.52.02,1.22-.06,3.48,1.67,3.55l-.21.26.31.16c-.26-.02-.2.11-.21.1-.36-.02-1.23-.31-1.46-.1-.4-.36-.76-.66-1.15-1.04.67.58.41-2.09.52-3.65.01,0,.25-.11.26-.1.12.06-.06.38.26.31Z"/>
          <path class="cls-43" d="M19.09,63.71c.13.31.19.64.31.94.19.49.41.98.63,1.46.18.4.45.81.52,1.25-.86-.32-1.48-.86-2.29-1.25.03-.63-.35-1.83-.83-2.19l.73-2.4c.31.73.64,1.45.94,2.19Z"/>
          <path class="cls-22" d="M17.42,63.92c.48.36.87,1.56.83,2.19-1.99,1.46-2.67-.4-2.61-2.19-.16-.79,1.45-.24,1.77,0Z"/>
          <path class="cls-49" d="M11.27,59.44c-.05,1.12.07-.02,1.41.31.85.21,1.09,3.17.16,3.13-1.72-.07-1.64-2.32-1.67-3.55l.1.1Z"/>
          <g>
            <path class="cls-7" d="M18.98,48.91s-.02-.12.1-.1c0,.41.92,2.31,1.04,3.49.18,1.8-.28,5.85.1,7.25-.11-.02-.32-.07-.42-.1-.08-.03.33-.32-.78,0-2.03.59-1.4.87-.89,2.09l-.73,2.4c-.32-.24-1.94-.79-1.77,0-.24.05-.15-.1-.31-.21-.47-.33-1.65-.36-2.4-.42l-.31-.16.21-.26c.93.04.69-2.92-.16-3.13-1.34-.34-1.46.81-1.41-.31.07-1.52.72-3.4.94-4.95.17-1.23.4-5.84.83-6.41.14-.18,1.51-1.16,3.34-3.02l2.19,7.25c.24.18.46-3.1.42-3.39Z"/>
            <path class="cls-35" d="M14.13,51.1h.63c2.23,3.81-2.79,2.09-.63,0Z"/>
            <path class="cls-49" d="M15.49,56c2.93-.25.07,4.44-.47.47l.47-.47Z"/>
          </g>
        </g>
        <path class="cls-13" d="M12.93,63.3c.74.06,1.93.09,2.4.42-.94,1.68-.93,1.72-2.61-.31.01,0-.05-.12.21-.1Z"/>
        <path class="cls-46" d="M39.42,53.6c.09.33.07,6.02,0,6.73-.22,2.29-1.11,3.66-1.15,3.86-.3,1.59.68,4.57-2.71,4.95-.42,0-.49-.1-.52-.1l-.83-.94c.33-.12.61-.16.94-.31.75-.35,1.18-.93,1.67-1.56.52-.67,1.44-2.16,1.56-2.97.34-2.33-.6-7.53-1.04-10.06-.18-1.05-.45-2.08-.63-3.13-.06-.37-.17-.78-.21-1.15.62.88,1.19,2.14,1.77,3.18.28.49,1.12,1.42,1.15,1.51Z"/>
        <path class="cls-27" d="M44.74,70.28c-1.07.77-1.27.67-2.45,1.04-.05.02-.3.35-.52.42-.69.2-.79-.3-1.15-.31-.12,0-1.43.57-2.24.63-1.42.1-1.09-.74-1.62-.83-.3-.05-2.76,1.29-4.17.63-.17-.08-.47-.58-.68-.63.38-1.08,1.84-.49,1.98-1.04,2.03-.07,4.04-.2,6.05-.52l.1.36c1.89,1.19,1.05-1.56,4.69.26Z"/>
        <path class="cls-35" d="M47.03,67.15c.16-.37.31-2.96.1-3.65.23.33,1.89,2.26,1.88,2.45,0,.13-2.02,1.77-1.98,1.2Z"/>
        <g>
          <path class="cls-50" d="M50.27,59.54c0,.17,0,.35,0,.52l-.42-.26c0,.61.12,1.28-.42,1.2-.03-.2-.21-.29-.31-.42-.63-.75-1.2-.54-1.88.1-1.56,1.48,1.1,2,1.88,1.25.59,2.48-.44,4.31,1.15,4.28,1.66-.04,2.32-1.84,3.44-2.71.36,1.81,1.32.75,1.36-.21.49.14.49-.04.63-.1.41-.2,1.59-1.03,1.98-1.36.55-.45.6-.39.63-.42.71.88,1.06,1.8.83,2.92-.5.57-.73.64-1.46.83.55-.63-.09-.11-1.2-.52-2.82,2.02-3.16,1.1-3.34,1.15-.2.06-.91,1.23-1.36,1.46-1.17.61-3.53.12-5.94,1.98-.61.47-.43.7-.47.73-.05.04-.56.27-.63.31-3.64-1.82-2.81.93-4.69-.26l-.1-.36c0-.26-.07-.47.21-.42,1.49-.24,2-1.47,4.01-.21-.51-1.59.82-.84,1.36-.94.57-.1,1.48-.86,1.51-.94-.04.57,1.97-1.07,1.98-1.2.01-.19-1.65-2.13-1.88-2.45-.22-.31-.23.02-.42-.26-.18-.28-1.67-4.17-2.19-4.54.99-.54.75-1.11.63-2.09-.05-.42-.1-.3-.1-.31-.54-2.7-2.02-3.07-2.09-3.28-.07-.23,1.44-1.73,1.77-4.33,3.65,4.58,4.72,3.27,5.11,3.6.22.18.07,5,.1,5.74.05,1.14.31,1.43.31,1.51Z"/>
          <path class="cls-44" d="M49.12,60.58c.43,2.06-2.12,1.86-1.88.1.67-.64,1.25-.85,1.88-.1Z"/>
          <path class="cls-19" d="M49.43,61c.04.43,0,.64-.31.94-.78.75-3.44.23-1.88-1.25-.24,1.76,2.3,1.95,1.88-.1.1.12.29.21.31.42Z"/>
        </g>
        <g>
          <path class="cls-35" d="M61.42,55.27c-2.17,2.44-1.42,4.06-2.61,5.63-.02.03-.43.44-.52.52-.03.03-.08-.04-.63.42-.2,0,.26-.89.52-1.46.6-1.28,1.17-2.88,1.25-3.02.46-.84,1.63-1.49,1.88-2.4.14,0,.12.17.1.31Z"/>
          <path class="cls-49" d="M50.37,59.54c-.23-.6,0-.59,0-.63.35-.22,1.01,1.09,1.46-.31,0-.61-.98-1.09-1.46-.63.07-.26.06-.14.21-.31,2.77-.87,2.2,4.12-.21,1.88Z"/>
          <path class="cls-7" d="M53.71,63.5c-1.12.88-1.78,2.67-3.44,2.71-.07-.56.1-.59.1-.63,1.1.28,2.31-2.12,3.23-3.23.05.33.05.86.1,1.15Z"/>
          <path class="cls-3" d="M58.19,60.38c-.26.57-.72,1.46-.52,1.46-.39.32-1.57,1.15-1.98,1.36-.13.01-.13-.21-.1-.26.1-.15,2.27-2.08,2.61-2.55Z"/>
          <path class="cls-28" d="M51.83,58.6c-.45,1.4-1.11.09-1.46.31,0-.13-.02-.3,0-.42.75-.75.73.12,1.46.1Z"/>
          <path class="cls-18" d="M51.83,58.6c-.73.01-.71-.86-1.46-.1.03-.17-.03-.4,0-.52.48-.46,1.46.02,1.46.63Z"/>
          <g>
            <path class="cls-36" d="M57.57,47.76c.14-.06.42-.39.52-.52-.25,2.77,1.05,5.45,1.15,8.24,0,.44-.29,1.2.21,1.88-.08.14-.65,1.74-1.25,3.02-.33.47-2.51,2.4-2.61,2.55-.03.05-.03.27.1.26-.14.07-.14.24-.63.1.02-.5-.2-1.32-.47-1.77-.52-.09-.71.5-.99.83-.92,1.11-2.14,3.52-3.23,3.23,0-1.82-.04-3.71-.1-5.53,0-.17,0-.35,0-.52h.1c2.41,2.24,2.98-2.75.21-1.88-.07,0-.18.03-.21-.05-.16-.47.27-4.55.1-5.68.19-.09.2-.2.21-.21.2-.17,1-1.33,1.15-1.62,2.28-4.26.5-6.53,2.5-2.29.56-.09.08-1.71-.1-2.24.01-.11.11-.17.21-.21.46.56,2.6,2.64,3.13,2.4Z"/>
            <path class="cls-29" d="M59.23,55.48c-.1-2.78-1.4-5.47-1.15-8.24.74,2.71,1.14,5.43,1.15,8.24Z"/>
            <path class="cls-19" d="M53.24,52.56c.92,2.87,1.55,3.62-1.2,1.93l1.2-1.93Z"/>
            <path class="cls-35" d="M57.57,47.76c-.53.25-2.67-1.84-3.13-2.4.21-.07,2.95,1.91,3.13,2.4Z"/>
            <path class="cls-19" d="M58.61,57.14c-.11,1.16-1.84,1.72-1.98.31.58.15.91.44,1.51.1.39-.22.15-.67.47-.42Z"/>
            <g>
              <path class="cls-15" d="M58.61,57.14c-.32-.25-.07.2-.47.42-.6.34-.94.05-1.51-.1-.16-1.6,2.14-1.94,1.98-.31Z"/>
              <path class="cls-18" d="M57.51,56.41c1.03-.28.45,1.43-.36.47l.36-.47Z"/>
            </g>
          </g>
        </g>
        <path class="cls-33" d="M34.21,68.09l.83.94c-.63.01-.81-.11-1.3-.1-.08,0,.1.2-.36.21l-.73-.42c.25-.42,1.18-.48,1.56-.63Z"/>
        <path class="cls-30" d="M33.37,69.14c-.52.01-.7.09-.83.1-.22-.28.02-.34,0-.42.13.01.09-.09.1-.1l.73.42Z"/>
        <g>
          <path class="cls-19" d="M20.03,66.11c-.22-.48-.43-.97-.63-1.46.97-.26,1.86-.59,2.71-1.15.04-.03.22.06.21-.1.41.37-1.72,2.54-2.29,2.71Z"/>
          <path class="cls-31" d="M22.11,63.5c-.85.55-1.74.88-2.71,1.15-.12-.3-.19-.63-.31-.94.21-.05.27-.5.31-.73l2.71.52Z"/>
        </g>
        <g>
          <path class="cls-47" d="M27.01,64.55c-1.45.56-1.19,2.39.21,1.88.02.05.1.2.1.21-2.26,1.51-2.08-.27-1.36-1.98.1-.25.17-.5.31-.73.34.25.44.24.73.63Z"/>
          <g>
            <path class="cls-37" d="M26.91,47.97c.71,2.11.75,4.32.94,6.52.46-1.07,1.07-2.73,1.04-3.81,0,0,.06.04.1.1,1.98,3.82.27,9.87.42,11,.05.36,1.84,4.71,2.09,7.04v.21c-1.4.13-.74,2.11-3.34-.52.32-.61-.43-1.46-.83-1.88,0,0-.09-.15-.1-.21,1.05-.29.07-1.51-.21-1.88-.29-.38-.39-.38-.73-.63-.15-.11-.54-.67-.78-.63-1.03,1.35-2.12,2.69-2.97,4.17-.02.03-.31.06-.1.31-.83-.02-1.13-.14-1.88-.42-.07-.44-.34-.85-.52-1.25.57-.17,2.7-2.34,2.29-2.71l-2.92-.63c.2-1.1.4-2.21.42-3.34.09.04.3.08.42.1.04.15-.11.55.21.36.39-1.26.89-7.85,1.04-8.24.04-.1.29-.24.42-.36.6-.58,3.95-2.42,5.01-3.34Z"/>
            <path class="cls-47" d="M22.32,63.4c0,.17-.17.08-.21.1l-2.71-.52c.01-.06-.01-.14,0-.21l2.92.63Z"/>
            <g>
              <path class="cls-49" d="M24.46,59.23c1.62-.19,1.66,2.04-.21,2.19-1.32-.32-1-2.05.21-2.19Z"/>
              <path class="cls-23" d="M24.46,59.75l.57.05c.21,1.21-1.37.89-.57-.05Z"/>
            </g>
          </g>
          <g>
            <path class="cls-19" d="M27.22,66.42c-1.4.51-1.66-1.32-.21-1.88.28.37,1.26,1.59.21,1.88Z"/>
            <path class="cls-28" d="M26.96,65.17l.26.26c.17,1.74-1.78.3-.26-.26Z"/>
          </g>
        </g>
        <g>
          <path class="cls-31" d="M44.53,58.71c-.09-.06-1.14.06-1.88-.73.06-.2.14-.13.21-.21.65.1,2.26-.35,2.29-1.15.12.98.36,1.55-.63,2.09Z"/>
          <path class="cls-6" d="M45.05,56.31s.05-.11.1.31c-.04.79-1.65,1.25-2.29,1.15.42-.5,1.54-1.23,2.19-1.46Z"/>
          <g>
            <path class="cls-7" d="M44.74,48.7c-.34,2.6-1.84,4.1-1.77,4.33.07.22,1.55.59,2.09,3.28-.65.23-1.77.96-2.19,1.46-.07.08-.15.01-.21.21-.43,1.45.98,1.21,1.88.73.52.36,2.01,4.26,2.19,4.54.19.28.2-.05.42.26.21.69.05,3.28-.1,3.65-.04.08-.94.84-1.51.94-.53.1-1.86-.66-1.36.94-2.01-1.26-2.52-.03-4.01.21-.79-1.31-.98-.08-4.59-.1,3.39-.38,2.41-3.36,2.71-4.95.04-.2.93-1.57,1.15-3.86.07-.7.09-6.4,0-6.73,2.54.38,3.94-2.81,4.59-4.8.13-.39.05-.69.26-.83.09,0,.39.63.47.73Z"/>
            <path class="cls-49" d="M42.08,65.38c2.06-.31.97,3.05-.99,1.09-.25-.43.77-1.06.99-1.09Z"/>
            <path class="cls-22" d="M44.53,58.71c-.89.48-2.3.72-1.88-.73.74.79,1.79.67,1.88.73Z"/>
          </g>
        </g>
        <g>
          <path class="cls-5" d="M32.43,64.34c-.09.52.11.95.52,1.25-.71.76-.73,2.09-.63,3.08,0,.08.21.14.21.16.02.08-.22.14,0,.42-.67.06-.85-.23-1.04-.21v-.21c-.21-1.87-.29-3.75-.31-5.63l1.25,1.15Z"/>
          <path class="cls-37" d="M37.34,53.18c.02,1.21-1.77,4.39-1.77,4.64,0,.18.93,1.87,1.15,3.44.23,1.65,0,3.3.1,4.95-.49.63-.92,1.21-1.67,1.56-.34-.15.01-.72-.1-1.51-.19-1.33-1.15-1.68-2.09-.68-.41-.3-.61-.73-.52-1.25.35-2.08,4.29-4.36-1.25-3.13,0-.95-.11-7.15.1-7.46.09-.13,1.03-.03,1.25-.05.02,0,.08.16.36.1,1.53-.27,3.17-2.39,3.81-3.75.18,1.05.44,2.08.63,3.13Z"/>
          <path class="cls-20" d="M32.43,64.34l-1.25-1.15c0-.66,0-1.32,0-1.98,5.54-1.24,1.6,1.05,1.25,3.13Z"/>
          <path class="cls-22" d="M35.15,67.78c-.33.15-.61.19-.94.31-.38.14-1.31.21-1.56.63-.01.02.02.12-.1.1,0-.01-.2-.08-.21-.16-.11-.98-.09-2.31.63-3.08.94-1,1.89-.66,2.09.68.11.79-.24,1.36.1,1.51Z"/>
          <path class="cls-7" d="M36.81,66.22c-.11-1.65.12-3.3-.1-4.95-.22-1.57-1.15-3.26-1.15-3.44,0-.25,1.8-3.43,1.77-4.64.44,2.53,1.39,7.73,1.04,10.06-.12.81-1.05,2.31-1.56,2.97Z"/>
        </g>
        <g>
          <path class="cls-34" d="M27.74,22.63c.13.11.55.36.73.42.13.29.52.69.63.89.83,1.55,1.42,3.5,1.36,2.45.14-.02.44.06.52-.05.18-.25-.14-5.42,0-6.2,0,0-.02-.12.1-.1-.04,4.29.09,8.64.21,12.93l-1.25-1.15c.18-.38.78-2.73.63-3.23.08-.32-.52-.05-1.15-.21.09-.81-.12-1.43-.31-2.19-.21-.81-1.03-2.8-1.82-3.13-.49-.2-1.08.27-1.93.1-.29-.06-1.33-1.04-3.02-1.04h-.31c-.19-1.08-1.71-1.62-.83-.05-1.96.23-2.7,2.35-3.6.57-.97,1.02-.83,2.22-1.09,3.44-.07-.28-.14-.66-.31-.89-.7-.93.33.97.21,2.5-.02.28-.38.9-.42,1.09-.06.35.57.94-.26.73-.49-.13-2.1-1.35-2.45-1.77-.61-.74-1.44-2.58-.73-3.44.24-.29,1.11-.31,1.15-.36.12-.19-.78-3.04,2.76-2.03,1.48-3.64,3.91-1.01,4.17-.94,1.87.51,2.88-2.32,5.32-.31.66.54,1.03,1.42,1.72,1.98Z"/>
          <path class="cls-19" d="M12.62,24.3c-.71.87.12,2.71.73,3.44l-.1.1c-.21-.45-.61-.87-1.15-.63-.33-1.23.02-3.97.52-2.92Z"/>
          <path class="cls-8" d="M13.56,31.91c.42.53.79.98,1.46,1.25-1.15,1.72.87,3.31,2.5,3.34.37,3.18,3.62.87,3.13,2.55.92,1.02,3.09-1.86,3.28-1.93.48-.17,3.07,1.08,5.37-1.98.67-.32,1.29-1.3,1.77-1.88l-.1,2.29-.31.16c-.15,3.22.52,3.05.63-.05.3.64,0,1.72,0,2.29-1.2.51-2.41,1.04-3.65,1.46-.94.32-2.97.98-3.86,1.15-2.46.47-5,.24-7.35-.63-.24-.09-.7-.67-.83-.73-.08-.04-.67.1-1.67-.42-.83-.43-1.27-1.3-1.36-1.36-.1-.06-.87-.14-1.15-.31-2.15-1.36-1.1-2.88-1.2-3.28-.08-.34-1.3-.78-1.15-1.62,0-.03,0-.07,0-.1.3.57,1.22.65,1.46,1.3.3.79-.04,1.7.63,2.61,1,1.36,1.72.24,1.82.26.2.04.86,2.58,3.13,1.98.98-.47-1.76-3.22-2.66-4.48.05-.92-.23-1.84-.52-2.71.18.31.41.56.63.83Z"/>
          <path class="cls-18" d="M31.29,32.95s0,.07,0,.1c-.16.02-.2.2-.21.21-.48.57-1.1,1.55-1.77,1.88-1.63.79-4.6.34-5.21.42,1.84-1.18,4.93-1.55,5.94-3.75l1.25,1.15Z"/>
          <path class="cls-34" d="M30.66,28.57c-1.53,5.19-4.91,4.74-5.68,5.01-.2.07-2.59,2.54-3.13,2.82-2.49-1.36-1.94-1.76-2.03-1.88,1.34-.9.04-.6-.31-1.2-.07-.12.07-.26.1-.36,1.7.56,2.1,1.1,4.38-.1,1.08-.57,3.43-2.98,3.86-4.07.52.26-.88,1.49.63,1.25-.08.5-.42.89-.26.94.25.08,1.25-2.16,1.3-2.61.62.16,1.23-.11,1.15.21Z"/>
          <path class="cls-31" d="M22.11,22.11c.07.38-.14,1.43-.57,1.56-.78.24-.58-.46-1.82.63-.78.68-1.3,1.82-1.36,2.87,0,.06.34.95,0,1.09-.29-.66-.14.62.21,1.56-.54-.02-1.77-.9-1.88-1.51-.08-.47.25-.91-.1-2.24.26-1.22.13-2.42,1.09-3.44.9,1.77,1.64-.35,3.6-.57-.87-1.57.64-1.03.83.05Z"/>
          <path class="cls-19" d="M22.42,22.11c.1.88.56.61,2.19,1.56,1.01,4.11-2.81,1.91-3.08,1.88-1.12-.15-1.57.75-2.35.73-.05-.52.44-1.43.52-1.98,1.24-1.09,1.05-.38,1.82-.63.43-.14.64-1.18.57-1.56h.31Z"/>
          <path class="cls-35" d="M30.04,31.8c-1.02,2.2-4.1,2.58-5.94,3.75-2.08.25-1.16,2.27-5.01-.1-.81-.5-1.51-1.32-2.29-1.88.49.12.98.4,1.46.36l-.1-.16c.56.4,1.61.66,1.67.73.09.11-.46.52,2.03,1.88.54-.28,2.93-2.75,3.13-2.82.77-.27,4.15.19,5.68-5.01.16.5-.45,2.85-.63,3.23Z"/>
          <path class="cls-47" d="M29.2,26.17l-.1,2.66c-.33.75-.03-.79-.52-2.19-.24-.32-.14.26-.1,1.09-.39.07-.12-.5-.21-.78-.03-.09-.2-.04-.21-.05-.45-1.11-.15.07-1.15.89,0-1.67-.57-2.92-1.88-3.91-.11-.08-.2-.14-.31-.21l.73-.52c.85.17,1.44-.31,1.93-.1.79.33,1.61,2.31,1.82,3.13Z"/>
          <path class="cls-35" d="M16.06,28.78c.3.02.14.86,1.09,1.56.29.22.84.43,1.2.52-.01,2.49.95,1.48,1.41,1.46,1.92-.08,2.47.68,3.86.52.06,0,.35-.48.36,0-2.28,1.2-2.68.67-4.38.1-.5-.17-.63.02-.68,0-1.15-.46-3.45-2.77-4.64-3.55-.3-.39-.62-.77-.94-1.15-.02-.09.01-.16-.1-.42l.1-.1c.35.42,1.96,1.65,2.45,1.77.83.21.2-.38.26-.73Z"/>
          <path class="cls-31" d="M16.58,26.07c.36,1.33.02,1.77.1,2.24.11.62,1.34,1.49,1.88,1.51.11.28.39.86.63,1.04,0,0-.03.14.21.1-.47.03-.6.02-1.04-.1-.36-.1-.91-.3-1.2-.52-.95-.71-.79-1.54-1.09-1.56.04-.2.4-.82.42-1.09.12-1.53-.91-3.43-.21-2.5.17.23.24.61.31.89Z"/>
          <path class="cls-35" d="M30.45,26.38c.06,1.05-.52-.9-1.36-2.45-.1-.19-.49-.59-.63-.89-.22-.49.16-.46.78-.21,1.08.43,1.14,2.6,1.2,3.55Z"/>
          <path class="cls-22" d="M29.51,28.36c-.05.44-1.05,2.69-1.3,2.61-.16-.05.18-.44.26-.94.16-.99.04-1.38,0-2.29-.04-.83-.13-1.42.1-1.09.49,1.4.19,2.94.52,2.19l.1-2.66c.2.76.4,1.38.31,2.19Z"/>
          <path class="cls-22" d="M25.45,23.15l-.73.52s-.08.02-.1,0c-1.63-.95-2.09-.68-2.19-1.56,1.7,0,2.73.99,3.02,1.04Z"/>
          <path class="cls-20" d="M12.31,29.3c-1.7,1.53-1.28,3.78.78,4.8l.36-.31c.9,1.26,3.64,4.01,2.66,4.48-2.26.6-2.93-1.94-3.13-1.98-.11-.02-.83,1.1-1.82-.26-.67-.91-.33-1.82-.63-2.61-.24-.65-1.16-.74-1.46-1.3.27-.93,2.17-2.52,3.08-3.02l.16.21Z"/>
          <path class="cls-31" d="M14.29,29.41c.72.93,3.07,3.82,3.86,4.38l.1.16c-.48.04-.96-.25-1.46-.36-.6-.14-1.19-.18-1.77-.42-.67-.27-1.04-.72-1.46-1.25.08-.84-.02-2.91-.21-3.65.32.37.64.76.94,1.15Z"/>
          <path class="cls-22" d="M12.31,29.3c-.03.63.45,1.24.63,1.77.29.87.58,1.79.52,2.71l-.36.31c-2.06-1.02-2.49-3.27-.78-4.8Z"/>
          <path class="cls-19" d="M17.52,36.5c.76.01,1.38-.32,1.56-1.04,3.84,2.37,2.93.36,5.01.1.62-.08,3.59.37,5.21-.42-2.3,3.06-4.89,1.81-5.37,1.98-.2.07-2.36,2.95-3.28,1.93.49-1.69-2.76.63-3.13-2.55Z"/>
          <path class="cls-22" d="M16.79,33.58c.78.56,1.48,1.38,2.29,1.88-.19.72-.8,1.05-1.56,1.04-1.63-.02-3.65-1.61-2.5-3.34.58.24,1.17.27,1.77.42Z"/>
          <path class="cls-25" d="M28.05,26.9c.07.54-.01,1.39-.21,1.88-.43,1.09-2.78,3.5-3.86,4.07-.02-.48-.3,0-.36,0-1.39.16-1.94-.6-3.86-.52-.46.02-1.42,1.03-1.41-1.46.45.12.57.14,1.04.1.89-.06,1.77-.39,2.55-.83,2.46-1.4,3.28-4.42,1.72-.05.29,1.02,3.72-2.92,1.46-5.79,0-.03-.36-.07-.1-.42,1.31.99,1.88,2.24,1.88,3.91,1-.82.69-1.99,1.15-.89Z"/>
          <path class="cls-18" d="M19.61,32.95c-.04.1-.17.25-.1.36.35.6,1.65.3.31,1.2-.06-.07-1.1-.33-1.67-.73-.79-.56-3.14-3.45-3.86-4.38,1.19.78,3.49,3.08,4.64,3.55.05.02.18-.17.68,0Z"/>
          <path class="cls-34" d="M28.47,27.74c.04.92.16,1.3,0,2.29-1.51.24-.1-.99-.63-1.25.19-.49.28-1.34.21-1.88,0,.01.18-.04.21.05.09.29-.18.85.21.78Z"/>
          <path class="cls-20" d="M25.03,23.88c-.26.34.1.39.1.42.89,3.05-3.36,5.96-5.94,6.57-.24-.18-.52-.76-.63-1.04-.35-.94-.5-2.22-.21-1.56.76,2.56,5.15-.34,6.05-1.82.05-.36-.25.17-.83.36-.79.27-2.02.51-2.82.42-.64-.08-1.5-.22-1.56-.94.78.02,1.22-.88,2.35-.73.27.04,4.09,2.23,3.08-1.88.03.02.08-.02.1,0,.11.07.2.12.31.21Z"/>
          <path class="cls-15" d="M19.19,26.28c.07.72.92.86,1.56.94-2.41.73,1.56,1.14,2.82-.42.58-.2.88-.73.83-.36-.89,1.48-5.29,4.39-6.05,1.82.34-.15,0-1.04,0-1.09.05-1.05.58-2.18,1.36-2.87-.08.55-.57,1.46-.52,1.98Z"/>
          <path class="cls-34" d="M19.4,30.97c-.24.04-.2-.1-.21-.1,2.59-.61,6.83-3.52,5.94-6.57,2.26,2.87-1.17,6.81-1.46,5.79,1.56-4.36.74-1.35-1.72.05-.78.45-1.67.78-2.55.83Z"/>
          <path class="cls-19" d="M23.57,26.8c-1.26,1.56-5.22,1.15-2.82.42.8.1,2.02-.15,2.82-.42Z"/>
        </g>
        <g>
          <path class="cls-34" d="M55.27,26.07c-.24.57-.9,1.26-1.56.89-.07.43,1.11-.13,1.04,2.35-.45-.03.05.48-.31,1.67-.86,2.84-5.07,3.32-5.32,3.55-1.31,1.21,4.85.33,5.58.21l-.26-1.56c.22-.24.19-.38.21-.42.41-.97.08-1.73.21-2.92.08-.69.3-1.31.42-1.98.44.53.9,1.04,1.36,1.56-.25.05.09.19.1.21,1.39,2.1,2.32,2.61.1,4.8-.7.55-3.46,2.39-3.34,1.36,2.39-.9,2.92-2.63,1.51-1.04-1.68,1.09-2.78,1.01-3.81,1.25-.94.01-1.93-.56-2.82-.31.2-.23.31-1.94.21-2.14-.26-.5-1.05-.16-.94-.47.03-.03.2-.29.52-.63,1.13-.52,2.03.29,3.34-1.3.96-1.17,2.01-4.17,1.36-5.58-.27-.58-.52-.48-.94-.21-.03-.42-.26-.84-.31-1.25.73-.55-.03-.77-.1-1.56.69.34.79.8.89.83.24.08,4.07-.19,2.87,2.71Z"/>
          <path class="cls-34" d="M49.43,22.32s.08.18.1.21c-1.25,1.1-.89.46-2.71.52-.27,0-.44.21-.47.21-.74.03-1.17-.12-1.51-.1-.87-.67-2.08.18-2.92.73-.96.63-2,1.49-2.09,2.87-.09,1.41.57,1.43,1.25,2.35.56.77,1.04,1.6,1.82,2.19,2.52,1.88,2.88.45,3.91-.31l.42.63c-.65.27-.97,1.68-1.09,1.77-.95.7-3.79-1.55-4.43-2.29-1.08-1.25-1.23-2.28-1.36-2.35-.1-.05-1.14.5-1.67-.94-.57-1.55.15-2.61.31-3.08.65-1.9,1.65-3.15,1.67-3.34.01-.09-.12-.11-.1-.21.93.1,1.14-1.35,2.03-1.36.57,0,2.77,1.65,3.13,2.29.89-2.72,1.57-2.39,3.7.21Z"/>
          <path class="cls-18" d="M51.52,22.52c.07.79.83,1.01.1,1.56-.02.02.05-.11-.52.1-.94-.42-.69-1.31-1.88-.83,1.12-1.11.55-.56.31-.83-.02-.03-.08-.18-.1-.21.68-.22,1.47-.1,2.09.21Z"/>
          <path class="cls-19" d="M55.38,26.49c.02.45-.02.91-.1,1.36-.12.67-.34,1.29-.42,1.98-.15.02-.11-.24-.1-.52.07-2.48-1.11-1.91-1.04-2.35.66.38,1.33-.31,1.56-.89.18,0,.07.23.1.42Z"/>
          <path class="cls-20" d="M38.07,32.43c-.69.45,3,3.01,3.39,3.23.65.37,2.66,1.19,3.34,1.36.52.12,2.27-.1,1.2.52l-.21.05c2.38,1.35,5.59,1.38,8.13.36l.83,1.15c-.32.16-.99.22-1.2.31-.25.12-.67.63-1.51.94-1.04.39-3.23.61-4.38.63l-2.76-1.98c-1.07-.27-3.23,1.42-3.34-1.77-.64-.02-.41.87-.94,1.25-1.73-.13-1.03-1.3-1.09-1.62-.03-.15-1.39-1.92-1.67-2.35.06-.26-.02-1.57,0-2.19.24-.04.2.1.21.1Z"/>
          <path class="cls-35" d="M59.65,33.47c.48,1.57-1.26,1.12-.1,1.93.28,1.01-1.78,2.18-1.98.36.12-.4.07-.79.1-.94.17-.79.2-.59.21-.63l1.77-.73Z"/>
          <path class="cls-44" d="M57.57,35.77c-.48,1.64-1.33,2.6-2.82,3.34l-.83-1.15c1.23-.49,3.24-1.83,3.75-3.13-.03.15.01.54-.1.94Z"/>
          <path class="cls-34" d="M59.96,32.74c.28.4-.04.49-.31.73l-1.77.73c.01-.05-.07-.42.21-.94.26-.26.58-1.47,1.88-.52Z"/>
          <path class="cls-22" d="M59.96,32.74c-1.3-.95-1.61.26-1.88.52-.44.43-.76.76-1.25,1.15,2.21-2.19,1.28-2.7-.1-4.8.31.36,2,2.41,2.14,2.5.06.04.89-.16,1.09.63Z"/>
          <path class="cls-22" d="M56.73,29.61s-.35-.16-.1-.21c.14.16.1.2.1.21Z"/>
          <path class="cls-46" d="M47.66,40.98c-3.76.07-6.48-.82-9.8-2.4-.45-.45-.09-2.91-.21-3.75.17-.33.2-.29.21-.31.28.43,1.64,2.2,1.67,2.35.07.31-.64,1.49,1.09,1.62.53-.38.3-1.28.94-1.25.1,3.19,2.27,1.51,3.34,1.77l2.76,1.98Z"/>
          <path class="cls-19" d="M39,24.71c-.16.47-.88,1.53-.31,3.08.53,1.44,1.57.89,1.67.94.12.06.27,1.1,1.36,2.35-.73.36,1.36,1.27.89,1.56-.32.2-2.77-1.27-3.28-1.46-.41-.45.3,1.26.52,1.62.13.21,1.03,1.2,1.25,1.41l-.16.21c-.82-.88-1.82-1.43-2.87-1.98-.01,0,.03-.14-.21-.1.08-2.53-.07-5.08.1-7.61h1.04Z"/>
          <path class="cls-35" d="M39,24.71h-1.04c.03-.4-.06-1.11,0-1.3.1-.34,2.23-1.76,2.71-2.03-.02.19-1.02,1.44-1.67,3.34Z"/>
          <path class="cls-48" d="M57.88,34.2s-.04-.17-.21.63c-.51,1.3-2.52,2.63-3.75,3.13-2.54,1.02-5.76.99-8.13-.36l.21-.05,5.21-1.25c.81-.02,1.55-.24,2.29-.52-.13,1.03,2.64-.81,3.34-1.36.49-.39.81-.72,1.25-1.15-.28.52-.2.89-.21.94Z"/>
          <path class="cls-34" d="M39.32,31.18c.48.83,3.87,3.13,4.43,3.23,1.1.2,2.9-.43,3.91-1.36-.11.31.67-.03.94.47.1.2,0,1.91-.21,2.14-.46.13-1.71,1.31-2.35,1.15-.21-.05-.88-1.09-1.04-1.15-.6-.22-1.83.44-3.91-1.46-.22-.21-1.12-1.2-1.25-1.41-.22-.36-.93-2.06-.52-1.62Z"/>
          <path class="cls-46" d="M41.09,34.2c2.08,1.9,3.31,1.24,3.91,1.46.16.06.83,1.09,1.04,1.15.64.16,1.89-1.02,2.35-1.15.89-.24,1.87.32,2.82.31-.03,0,0,.12-.52.16l.52.16-5.21,1.25c1.07-.62-.68-.4-1.2-.52-.68-.16-2.69-.99-3.34-1.36-.39-.22-4.08-2.79-3.39-3.23,1.05.55,2.05,1.1,2.87,1.98l.16-.21Z"/>
          <path class="cls-18" d="M52.87,25.55c-.15,2.69-.78,6.12-4.07,6.15-.3,0-.85-.41-1.56-.1l-.42-.63c.19-.14.17-.41.73-.52,1.19-.25,1.88.47,3.23-1.67.03-.05.09-.01.21-.31.01-.02.43,0,.1-.21l-.1-.1c.8-.83,1.02-1.68.94-2.82.42-.27.67-.37.94.21Z"/>
          <path class="cls-20" d="M47.24,31.6c.71-.3,1.26.11,1.56.1-.14.39-.35.45-.63.73-.33.34-.49.6-.52.63-1.01.93-2.81,1.56-3.91,1.36-.57-.1-3.95-2.4-4.43-3.23.51.19,2.97,1.66,3.28,1.46.47-.3-1.62-1.21-.89-1.56.65.75,3.49,2.99,4.43,2.29.13-.1.44-1.5,1.09-1.77Z"/>
          <path class="cls-34" d="M49.12,34.52c1.32-.11,4.42-.37,5.32-1.36l.26,1.56c-.72.12-6.89,1-5.58-.21Z"/>
          <path class="cls-22" d="M48.18,32.43c.27-.28.49-.34.63-.73,3.29-.03,3.92-3.46,4.07-6.15.66,1.41-.39,4.41-1.36,5.58-1.31,1.6-2.2.79-3.34,1.3Z"/>
          <path class="cls-25" d="M54.65,32.74s.01.18-.21.42c-.9.99-3.99,1.24-5.32,1.36.25-.23,4.46-.7,5.32-3.55.35.44-.86,1.82-1.36,2.45,1.08.06,1.64-1.22,1.56-.68Z"/>
          <path class="cls-47" d="M54.75,29.3c0,.28-.04.54.1.52-.13,1.19.2,1.95-.21,2.92.08-.54-.48.74-1.56.68.5-.63,1.7-2.01,1.36-2.45.36-1.18-.13-1.7.31-1.67Z"/>
          <path class="cls-13" d="M53.5,35.77c-.75.28-1.49.5-2.29.52l-.52-.16c.51-.04.49-.15.52-.16,1.03-.24,2.13-.16,3.81-1.25,1.4-1.59.88.14-1.51,1.04Z"/>
          <path class="cls-19" d="M47.55,30.45c-.56.11-.54.38-.73.52-1.03.77-1.39,2.2-3.91.31-.78-.59-1.26-1.42-1.82-2.19.05-1.5.58-2.13,1.25-3.34.46,2.5,2.96,3.94,5.21,4.69Z"/>
          <path class="cls-31" d="M41.92,23.88l1.04.63c-.02.12,0,.28,0,.42-.28-.05-.38.39-.63.83-.67,1.21-1.2,1.84-1.25,3.34-.68-.92-1.34-.94-1.25-2.35.09-1.37,1.13-2.24,2.09-2.87Z"/>
          <path class="cls-20" d="M44.84,23.15c-1.31.06-1.62.04-1.88,1.36l-1.04-.63c.84-.55,2.05-1.4,2.92-.73Z"/>
          <path class="cls-20" d="M42.97,24.92c-.07,1.19-.06,1.18.52,2.19,1.01,1.74,4.7,4.3,7.3,1.67-1.35,2.13-2.04,1.42-3.23,1.67-2.25-.76-4.75-2.19-5.21-4.69.25-.44.34-.89.63-.83Z"/>
          <path class="cls-20" d="M50.79,28.78s0-.04.21-.31c-.12.3-.18.27-.21.31Z"/>
          <path class="cls-20" d="M51,28.47c.03-.09.09-.12.1-.21.32.2-.09.19-.1.21Z"/>
          <g>
            <path class="cls-25" d="M51.62,24.09c.05.41.28.83.31,1.25.08,1.14-.14,1.99-.94,2.82-.15.15-.53.51-.73.52,1.38-1.18,1.94-2.84.73-4.38.15-.04.1-.1.1-.1.57-.21.5-.09.52-.1Z"/>
            <path class="cls-31" d="M46.82,23.05c-.02.21.02.42,0,.63-.36,3.07-1.97,1.59-2.09,1.72-.25.83.16,1.65.63,2.35v.21c-.84-.05-1.65-1.11-1.88-.83-.58-1.01-.6-1-.52-2.19,0-.14-.02-.3,0-.42.25-1.31.56-1.29,1.88-1.36.34-.02.77.13,1.51.1.03,0,.2-.2.47-.21Z"/>
            <path class="cls-31" d="M49.22,23.36l.05.31c1.29.5.77.9,1.72.63,1.21,1.54.65,3.2-.73,4.38-.2.17-.15.16-.42.31-.02-.21-.5-.05-.94-.1,1.24-2.34,1.81-2.18,0-4.43-.08-.1.2-.19.05-.36-.53-.62-1.43-.33-2.03-.42h-.1c.02-.2-.02-.42,0-.63,1.82-.06,1.46.57,2.71-.52.23.28.81-.27-.31.83Z"/>
            <path class="cls-47" d="M51.1,24.19s.04.06-.1.1c-.95.28-.43-.13-1.72-.63l-.05-.31c1.18-.47.94.41,1.88.83Z"/>
            <path class="cls-7" d="M45.36,27.95c.04.19.26.23.42.31.87.47,2.16,1.85,4.07.73.26-.15.21-.14.42-.31.2,0,.58-.37.73-.52l.1.1c-.01.08-.07.12-.1.21-.22.28-.2.3-.21.31-2.6,2.63-6.29.07-7.3-1.67.23-.28,1.03.78,1.88.83Z"/>
            <path class="cls-22" d="M48.91,28.88c-1.68-.2-2.58-1.27-3.13-.63-.16-.08-.38-.13-.42-.31v-.21c-.71-.93,2.28,1,3.44-.68-.21-.12-.78-.13-.83-.16.13-1.07-.14-1.78-1.04-2.19,0-.05.15-.28,0-1.04.6.09,1.5-.2,2.03.42.15.17-.13.27-.05.36,1.81,2.25,1.24,2.09,0,4.43Z"/>
            <path class="cls-20" d="M46.93,23.67c.15.77,0,.99,0,1.04,0,1.05-.06,1.64,1.04,2.19.06.03.63.04.83.16-1.16,1.67-4.15-.25-3.44.68-.47-.69-.87-1.52-.63-2.35.12-.13,1.73,1.35,2.09-1.72h.1Z"/>
            <path class="cls-19" d="M48.91,28.88c.44.05.92-.11.94.1-1.91,1.13-3.19-.26-4.07-.73.54-.64,1.45.43,3.13.63Z"/>
            <path class="cls-19" d="M47.97,26.9c-1.1-.55-1.05-1.14-1.04-2.19.91.41,1.18,1.12,1.04,2.19Z"/>
          </g>
        </g>
      </g>
    </g>
  </g>
</svg>